<?xml version="1.0" encoding="UTF-8" standalone="no"?>
<!-- Created with Inkscape (http://www.inkscape.org/) -->

<svg
   width="26.458345mm"
   height="12.706565mm"
   viewBox="0 0 26.458345 12.706565"
   version="1.1"
   id="svg1"
   xmlns:inkscape="http://www.inkscape.org/namespaces/inkscape"
   xmlns:sodipodi="http://sodipodi.sourceforge.net/DTD/sodipodi-0.dtd"
   xmlns="http://www.w3.org/2000/svg"
   xmlns:svg="http://www.w3.org/2000/svg">
  <sodipodi:namedview
     id="namedview1"
     pagecolor="#505050"
     bordercolor="#eeeeee"
     borderopacity="1"
     inkscape:showpageshadow="0"
     inkscape:pageopacity="0"
     inkscape:pagecheckerboard="0"
     inkscape:deskcolor="#505050"
     inkscape:document-units="mm" />
  <defs
     id="defs1" />
  <g
     inkscape:label="Layer 1"
     inkscape:groupmode="layer"
     id="layer1"
     transform="translate(-35.427838,-46.939253)">
    <path
       id="path12"
       style="fill:#4464ad;stroke-width:1.5748;stroke-linejoin:round;paint-order:markers stroke fill"
       d="m 56.980423,46.939254 -1.114366,0.672548 v 0.280514 h -0.228652 v 0.447222 c -0.120735,-0.03435 -0.242714,-0.06783 -0.365843,-0.100399 -0.04396,-0.01106 -0.08807,-0.02201 -0.132306,-0.03284 v -0.313981 h -1.116341 v 0.06111 c -0.02107,-0.0042 -0.04217,-0.0084 -0.06329,-0.01258 v -0.04854 h -0.244761 c -0.176205,-0.03298 -0.353979,-0.06424 -0.533174,-0.09375 -0.180819,-0.02975 -0.363063,-0.05772 -0.546581,-0.08387 -0.183524,-0.02617 -0.368296,-0.05054 -0.554169,-0.07306 -0.185847,-0.02252 -0.372768,-0.04321 -0.560613,-0.06205 -0.187862,-0.0188 -0.376623,-0.03574 -0.56612,-0.05082 -0.189499,-0.01511 -0.379712,-0.02835 -0.570487,-0.0397 -0.190754,-0.01138 -0.382041,-0.02087 -0.573708,-0.02848 -0.191697,-0.0076 -0.383748,-0.01326 -0.575995,-0.01705 -0.192226,-0.0038 -0.384625,-0.0057 -0.577032,-0.0057 -0.39928,0.0037 -0.798005,0.01548 -1.194915,0.03544 v -0.281034 h -1.11634 v 0.349421 c -0.373887,0.02612 -0.745139,0.05948 -1.112703,0.09998 -0.246511,0.03076 -0.490981,0.0647 -0.733036,0.101853 -0.242056,0.03715 -0.481709,0.07753 -0.718694,0.120978 -0.06703,-0.0069 -0.134339,-0.01382 -0.20298,-0.01382 -0.09663,0 -0.191573,0.0066 -0.283944,0.02099 -0.09237,0.01439 -0.182183,0.03653 -0.268354,0.06776 -6.64e-4,2.41e-4 -0.0013,5.83e-4 -0.002,8.24e-4 l -0.0011,3.22e-4 c -0.04358,0.01563 -0.08616,0.03367 -0.127421,0.05415 -0.04126,0.02048 -0.08124,0.04345 -0.119419,0.06922 -0.0073,0.0049 -0.01355,0.01122 -0.02068,0.01632 -0.09962,0.02151 -0.198643,0.04358 -0.29704,0.0662 -0.01391,-0.01419 -0.0271,-0.02913 -0.04199,-0.0423 -0.0544,-0.04812 -0.115225,-0.08955 -0.182194,-0.12503 -0.04225,-0.02268 -0.08555,-0.04212 -0.129604,-0.05841 -0.04406,-0.01629 -0.08894,-0.02942 -0.134489,-0.03981 -0.04555,-0.01038 -0.09183,-0.01802 -0.138542,-0.02297 -0.04671,-0.005 -0.09389,-0.0073 -0.141453,-0.0073 -0.05114,0 -0.100365,0.0035 -0.148519,0.009 v -0.667351 h -0.616736 -0.499604 l -2.317594,-1.04e-4 v 1.104284 h 0.836658 v 1.077885 c -0.137051,0.06456 -0.270898,0.13052 -0.401388,0.197784 -0.13049,0.06726 -0.25763,0.135831 -0.381329,0.205682 -0.175742,0.10355 -0.34396,0.209657 -0.504281,0.318138 -0.160321,0.108481 -0.312752,0.219341 -0.457095,0.332377 -0.144349,0.113046 -0.280407,0.228238 -0.40804,0.345264 -0.127633,0.117025 -0.246846,0.23589 -0.35732,0.356489 -0.110479,0.120583 -0.212178,0.242716 -0.304938,0.366258 -0.09276,0.123542 -0.176589,0.248501 -0.251309,0.374573 -0.07472,0.126075 -0.140243,0.253263 -0.196537,0.381225 -0.05629,0.127962 -0.103359,0.256704 -0.141037,0.38611 -0.03768,0.129396 -0.06593,0.259254 -0.08481,0.389435 -0.01888,0.130181 -0.02837,0.26069 -0.02837,0.391202 -2e-6,0.130531 0.0095,0.261005 0.02837,0.391203 0.01888,0.130198 0.04712,0.260126 0.08481,0.389539 0.03768,0.129405 0.08474,0.258252 0.141037,0.386214 0.05629,0.127962 0.121821,0.255046 0.196537,0.381121 0.07472,0.126072 0.158548,0.25103 0.251309,0.374573 0.09276,0.123542 0.194459,0.245674 0.304938,0.366258 0.110478,0.120581 0.229687,0.239481 0.35732,0.356489 0.127633,0.117008 0.263695,0.232131 0.40804,0.34516 0.144343,0.113036 0.296774,0.223896 0.457095,0.332377 0.160321,0.108481 0.328539,0.214587 0.504281,0.318138 0.175743,0.103557 0.358909,0.204448 0.54918,0.302548 0.190271,0.0981 0.387655,0.193409 0.591792,0.285711 0.104173,0.04264 0.20987,0.08454 0.316995,0.125653 v 0.752264 c 0,0.0697 0.0039,0.139545 0.01278,0.208282 0.0089,0.06874 0.0228,0.136383 0.04292,0.201629 0.02012,0.06525 0.04647,0.128153 0.08013,0.187391 0.03366,0.05924 0.07468,0.114863 0.1242,0.165564 l 0.002,0.0016 0.0016,0.0016 c 0.05068,0.05068 0.106576,0.09271 0.166188,0.127214 0.05961,0.03451 0.122973,0.06154 0.188845,0.08221 0.06587,0.02067 0.13425,0.035 0.203708,0.04417 0.06946,0.0092 0.140092,0.01309 0.210464,0.01309 h 2.795995 c 0.05572,0 0.112091,-0.0032 0.168059,-0.0106 0.05597,-0.0074 0.111612,-0.01909 0.165876,-0.03586 0.05427,-0.01677 0.107165,-0.03873 0.15777,-0.06672 0.05061,-0.028 0.09885,-0.06207 0.143843,-0.103206 0.04515,-0.04139 0.08373,-0.08431 0.116093,-0.129084 0.03236,-0.04478 0.05862,-0.09149 0.0792,-0.140311 0.003,-0.0071 0.0038,-0.01506 0.0065,-0.02224 0.05344,0.0084 0.107009,0.01657 0.160679,0.02463 0.0076,0.01553 0.01181,0.03262 0.02037,0.04771 0.03364,0.05929 0.07469,0.114975 0.124304,0.165771 l 0.002,0.0016 0.0016,0.0016 c 0.05077,0.05077 0.106626,0.0928 0.166293,0.127319 0.05967,0.03452 0.123154,0.06157 0.189053,0.08221 0.0659,0.02065 0.13424,0.03493 0.203708,0.04407 0.06947,0.0091 0.140091,0.01309 0.210463,0.01309 h 0.398374 2.085408 c 0.05732,0 0.115,-0.0033 0.172113,-0.0107 0.05711,-0.0075 0.113723,-0.01915 0.16889,-0.03575 0.05517,-0.01661 0.108884,-0.03822 0.160368,-0.06569 0.02738,-0.0146 0.05209,-0.03549 0.07805,-0.05353 0.07651,0.0026 0.153088,0.0048 0.229691,0.0068 0.123638,-0.0029 0.247207,-0.0066 0.370624,-0.01102 0.01384,0.0092 0.02551,0.02229 0.03981,0.03056 0.05967,0.03452 0.123153,0.06157 0.189052,0.08221 0.0659,0.02065 0.134239,0.03493 0.203709,0.04407 0.06947,0.0091 0.140089,0.01309 0.210464,0.01309 h 2.795682 c 0.05571,0 0.111983,-0.0033 0.167955,-0.0107 0.05597,-0.0074 0.111607,-0.01909 0.165877,-0.03586 0.05427,-0.01677 0.107269,-0.03862 0.157873,-0.06662 0.05061,-0.028 0.09886,-0.06208 0.143844,-0.103206 0.04515,-0.04139 0.08362,-0.08441 0.115987,-0.129189 0.03237,-0.04478 0.05862,-0.09138 0.0792,-0.140206 0.0089,-0.02116 0.01281,-0.0445 0.01965,-0.06652 0.02761,-0.0042 0.05519,-0.0084 0.08273,-0.01269 0.0018,0.006 0.0021,0.01243 0.0039,0.0184 0.01931,0.0633 0.0444,0.124555 0.07618,0.182609 0.03178,0.05805 0.07026,0.112942 0.116404,0.16359 l 0.0016,0.0016 0.0016,0.0021 c 0.04671,0.05004 0.09513,0.0928 0.145715,0.128772 0.05059,0.03597 0.10328,0.06509 0.158496,0.08803 0.05522,0.02294 0.112981,0.03966 0.173569,0.05062 0.06059,0.01096 0.124015,0.01621 0.190715,0.01621 0.06588,0 0.128614,-0.0051 0.188534,-0.01591 0.05992,-0.01076 0.117039,-0.02718 0.171698,-0.04978 0.05465,-0.02261 0.106948,-0.05143 0.157042,-0.08699 0.05009,-0.03556 0.09803,-0.07782 0.144259,-0.12742 0.04749,-0.05089 0.08707,-0.106157 0.119729,-0.164631 0.03266,-0.05847 0.05846,-0.120166 0.07826,-0.184065 0.01979,-0.0639 0.0336,-0.130003 0.04251,-0.197159 0.0088,-0.0664 0.01269,-0.133835 0.01279,-0.201317 0.02974,-0.0066 0.05944,-0.01319 0.08907,-0.01985 0.250025,-0.06526 0.495279,-0.134138 0.735219,-0.206619 0.100543,-0.03037 0.196185,-0.0639 0.294857,-0.09551 0.136801,-0.04382 0.2757,-0.08635 0.408766,-0.132514 0.229042,-0.07946 0.452265,-0.162279 0.669223,-0.248295 0.216958,-0.08602 0.427662,-0.175233 0.631807,-0.267522 0.204144,-0.09231 0.401525,-0.18751 0.591791,-0.285607 0.190269,-0.0981 0.373431,-0.199091 0.549181,-0.302652 0.175748,-0.103554 0.343963,-0.209659 0.504281,-0.318138 0.160318,-0.108479 0.312747,-0.219337 0.457096,-0.332376 0.144349,-0.113034 0.280512,-0.228154 0.408142,-0.345161 0.12763,-0.117006 0.246735,-0.235904 0.357217,-0.356488 0.110482,-0.120589 0.21218,-0.242719 0.304939,-0.366259 0.09276,-0.12354 0.176585,-0.248497 0.251308,-0.374573 0.07472,-0.126079 0.140244,-0.253161 0.196536,-0.381121 0.05629,-0.12796 0.103359,-0.256804 0.141037,-0.386214 0.03769,-0.129418 0.06604,-0.259343 0.08491,-0.389539 0.01887,-0.130196 0.02827,-0.260668 0.02827,-0.391202 4e-6,-0.08698 -0.0042,-0.173971 -0.01257,-0.260871 -0.0084,-0.08689 -0.02097,-0.173707 -0.03773,-0.260351 -0.01677,-0.08666 -0.03775,-0.173167 -0.06288,-0.259416 -0.02512,-0.08626 -0.0544,-0.172278 -0.08782,-0.257961 -0.0334,-0.08565 -0.07093,-0.170973 -0.11256,-0.255882 -0.04164,-0.08493 -0.08739,-0.169461 -0.137191,-0.253492 -0.0498,-0.08404 -0.103652,-0.1676 -0.161511,-0.250581 -0.05786,-0.08295 -0.11972,-0.165323 -0.185519,-0.247048 -0.06582,-0.08174 -0.135578,-0.162837 -0.209217,-0.243202 -0.07361,-0.0804 -0.151099,-0.160073 -0.232394,-0.238942 -0.08134,-0.07881 -0.166493,-0.156821 -0.255363,-0.233952 -0.08883,-0.07719 -0.181404,-0.1535 -0.277602,-0.228859 -0.09621,-0.07532 -0.196052,-0.149691 -0.299431,-0.22304 -0.103368,-0.07338 -0.210283,-0.145741 -0.320632,-0.217011 -0.110366,-0.07126 -0.224179,-0.141444 -0.341314,-0.210464 -0.0092,-0.0052 -0.01834,-0.01033 -0.02754,-0.01549 0.01887,-0.05716 0.03451,-0.116598 0.04646,-0.178036 0.01229,-0.06312 0.02106,-0.128091 0.02681,-0.194355 0.0058,-0.06626 0.0084,-0.133823 0.0084,-0.201837 0,-0.09376 -0.0063,-0.184738 -0.01975,-0.272511 -0.01342,-0.08777 -0.03395,-0.172314 -0.06236,-0.253284 -0.02841,-0.08097 -0.06467,-0.158313 -0.109649,-0.231665 -0.02249,-0.03668 -0.04718,-0.07243 -0.0741,-0.107051 -0.02692,-0.03462 -0.05617,-0.06815 -0.08772,-0.100607 -0.06077,-0.06295 -0.126011,-0.117707 -0.195185,-0.164421 -0.06918,-0.04671 -0.142259,-0.08539 -0.218778,-0.116197 -0.07652,-0.03081 -0.156455,-0.05377 -0.239253,-0.06901 -0.0828,-0.01524 -0.168486,-0.02276 -0.256507,-0.02276 -0.05914,0 -0.117079,0.0033 -0.173775,0.01008 -0.0567,0.0068 -0.112146,0.01697 -0.166292,0.03066 -0.05415,0.01369 -0.107005,0.03084 -0.158498,0.05166 -0.05149,0.02081 -0.101657,0.04525 -0.150391,0.07338 v -0.124096 h -0.313874 z" />
    <g
       id="g4"
       transform="matrix(0.20112188,0,0,0.20112188,28.302504,37.498743)"
       style="stroke-width:4.97211">
      <path
         style="font-size:35.2778px;line-height:1.2;font-family:'Arial Rounded MT Bold';-inkscape-font-specification:'Arial Rounded MT Bold, ';letter-spacing:0px;word-spacing:0px;fill:#ffffff;stroke-width:7.83008;stroke-linejoin:round;paint-order:markers stroke fill"
         d="M 74.910023,86.378143 H 63.38617 v 6.201176 h 10.610902 q 1.171333,0 1.739774,0.533991 0.585667,0.516764 0.585667,1.378039 0,0.861274 -0.568441,1.41249 -0.568442,0.53399 -1.757,0.53399 H 63.38617 v 7.183031 h 11.920039 q 1.205784,0 1.808676,0.56844 0.620118,0.55121 0.620118,1.48139 0,0.89573 -0.620118,1.46417 -0.602892,0.55121 -1.808676,0.55121 h -13.90097 q -1.670872,0 -2.411568,-0.74069 -0.723471,-0.7407 -0.723471,-2.39435 V 85.568545 q 0,-1.102431 0.327285,-1.79145 0.327284,-0.706246 1.016303,-1.016304 0.706245,-0.327285 1.791451,-0.327285 h 13.504784 q 1.223009,0 1.808676,0.551216 0.602892,0.53399 0.602892,1.41249 0,0.895726 -0.602892,1.446941 -0.585667,0.53399 -1.808676,0.53399 z M 86.812835,85.103457 V 103.48305 H 97.18258 q 1.240235,0 1.894804,0.6029 0.671794,0.60289 0.671794,1.51584 0,0.93018 -0.654569,1.51584 -0.654569,0.56844 -1.912029,0.56844 H 84.831904 q -1.670872,0 -2.411568,-0.74069 -0.723471,-0.7407 -0.723471,-2.39435 V 85.103457 q 0,-1.550294 0.68902,-2.325441 0.706245,-0.775147 1.843127,-0.775147 1.154108,0 1.860353,0.775147 0.72347,0.757922 0.72347,2.325441 z m 32.935135,1.274686 h -11.52385 v 6.201176 h 10.6109 q 1.17133,0 1.73977,0.533991 0.58567,0.516764 0.58567,1.378039 0,0.861274 -0.56844,1.41249 -0.56844,0.53399 -1.757,0.53399 h -10.6109 v 7.183031 h 11.92004 q 1.20578,0 1.80867,0.56844 0.62012,0.55121 0.62012,1.48139 0,0.89573 -0.62012,1.46417 -0.60289,0.55121 -1.80867,0.55121 h -13.90097 q -1.67088,0 -2.41157,-0.74069 -0.72347,-0.7407 -0.72347,-2.39435 V 85.568545 q 0,-1.102431 0.32728,-1.79145 0.32729,-0.706246 1.01631,-1.016304 0.70624,-0.327285 1.79145,-0.327285 h 13.50478 q 1.22301,0 1.80868,0.551216 0.60289,0.53399 0.60289,1.41249 0,0.895726 -0.60289,1.446941 -0.58567,0.53399 -1.80868,0.53399 z m 21.97972,0 h -10.07691 v 6.459559 h 8.42327 q 1.17133,0 1.73977,0.53399 0.58567,0.516765 0.58567,1.395265 0,0.878499 -0.58567,1.395264 -0.58566,0.516765 -1.73977,0.516765 h -8.42327 v 8.319914 q 0,1.58474 -0.72347,2.35989 -0.70624,0.75792 -1.8259,0.75792 -1.13688,0 -1.86035,-0.77515 -0.70625,-0.77514 -0.70625,-2.34266 V 85.568545 q 0,-1.102431 0.32729,-1.79145 0.32728,-0.706246 1.0163,-1.016304 0.70625,-0.327285 1.79145,-0.327285 h 12.05784 q 1.22301,0 1.80868,0.551216 0.60289,0.53399 0.60289,1.41249 0,0.895726 -0.60289,1.446941 -0.58567,0.53399 -1.80868,0.53399 z"
         id="text1"
         aria-label="ELEF" />
      <g
         id="text3"
         style="font-size:17.6389px;line-height:1.2;font-family:'Arial Rounded MT Bold';-inkscape-font-specification:'Arial Rounded MT Bold, ';letter-spacing:0px;word-spacing:0px;fill:#ffffff;stroke-width:7.83008;stroke-linejoin:round;paint-order:markers stroke fill"
         aria-label="Thank you to&#10;our Sponsor:">
        <path
           style="font-family:Arial;-inkscape-font-specification:Arial;stroke-width:7.83008"
           d="M 54.911231,62.823677 V 51.687398 h -4.159955 v -1.490004 h 10.008009 v 1.490004 h -4.177181 v 11.136279 z m 7.363897,0 V 50.197394 h 1.550294 v 4.530303 q 1.085206,-1.25746 2.738853,-1.25746 1.016304,0 1.765613,0.404799 0.749308,0.396186 1.06798,1.102431 0.327284,0.706245 0.327284,2.049833 v 5.796377 H 68.174858 V 57.0273 q 0,-1.162721 -0.508152,-1.688098 -0.499539,-0.53399 -1.421103,-0.53399 -0.689019,0 -1.300524,0.361735 -0.602892,0.353123 -0.861274,0.964628 -0.258383,0.611504 -0.258383,1.688098 v 5.004004 z m 15.778548,-1.128269 q -0.861275,0.732083 -1.66226,1.033529 -0.792373,0.301446 -1.705323,0.301446 -1.507231,0 -2.316829,-0.732083 -0.809598,-0.740696 -0.809598,-1.886191 0,-0.671794 0.301446,-1.22301 0.310059,-0.559829 0.800986,-0.895726 0.499539,-0.335897 1.119656,-0.508151 0.456476,-0.120579 1.37804,-0.232545 1.877578,-0.223931 2.764691,-0.53399 0.0086,-0.318671 0.0086,-0.404799 0,-0.947402 -0.43925,-1.334975 -0.594279,-0.525378 -1.765612,-0.525378 -1.093819,0 -1.619196,0.387574 -0.516765,0.378961 -0.766535,1.352201 l -1.515843,-0.206706 q 0.206706,-0.97324 0.680407,-1.56752 0.473701,-0.602892 1.369427,-0.921563 0.895725,-0.327284 2.075671,-0.327284 1.171333,0 1.903417,0.275607 0.732083,0.275608 1.076593,0.697633 0.344509,0.413411 0.482313,1.050754 0.07751,0.396187 0.07751,1.429716 v 2.067059 q 0,2.161799 0.09474,2.738853 0.103353,0.568441 0.396186,1.093818 h -1.619196 q -0.241156,-0.482314 -0.310058,-1.128269 z m -0.129191,-3.462324 q -0.844049,0.34451 -2.532147,0.585667 -0.956015,0.137804 -1.352201,0.310059 -0.396187,0.172255 -0.611505,0.508152 -0.215319,0.327284 -0.215319,0.732083 0,0.620117 0.465088,1.033529 0.473701,0.413412 1.37804,0.413412 0.895725,0 1.593357,-0.387574 0.697633,-0.396186 1.024917,-1.076593 0.24977,-0.525377 0.24977,-1.550294 z m 3.970474,4.590593 v -9.146735 h 1.395265 v 1.300525 q 1.007691,-1.50723 2.911108,-1.50723 0.826823,0 1.515843,0.301446 0.697632,0.292833 1.042142,0.775147 0.344509,0.482313 0.482313,1.145495 0.08613,0.430637 0.08613,1.50723 v 5.624122 h -1.550294 v -5.563833 q 0,-0.947402 -0.180868,-1.41249 -0.180867,-0.473701 -0.645956,-0.749309 -0.456475,-0.28422 -1.076593,-0.28422 -0.990465,0 -1.713936,0.62873 -0.714858,0.62873 -0.714858,2.38573 v 4.995392 z m 9.81853,0 V 50.197394 h 1.550294 v 7.200254 l 3.66903,-3.720706 h 2.006769 l -3.496774,3.393422 3.849897,5.753313 h -1.91203 l -3.023073,-4.67672 -1.093819,1.050755 v 3.625965 z m 13.642591,3.522613 -0.17226,-1.455554 q 0.50815,0.137804 0.88711,0.137804 0.51677,0 0.82683,-0.172255 0.31006,-0.172255 0.50815,-0.482314 0.14642,-0.232544 0.4737,-1.154108 0.0431,-0.129191 0.1378,-0.37896 l -3.47093,-9.163961 h 1.67087 l 1.90342,5.296838 q 0.37034,1.007691 0.66318,2.118735 0.26699,-1.06798 0.63734,-2.084284 l 1.95509,-5.331289 h 1.5503 l -3.47955,9.301764 q -0.55983,1.507231 -0.86989,2.075672 -0.41341,0.766534 -0.9474,1.119657 -0.53399,0.361735 -1.27469,0.361735 -0.44786,0 -0.99907,-0.18948 z m 8.31129,-8.09598 q 0,-2.54076 1.41249,-3.76377 1.17995,-1.016303 2.87666,-1.016303 1.88619,0 3.08336,1.240235 1.19717,1.231622 1.19717,3.410647 0,1.765612 -0.53399,2.781916 -0.52537,1.007691 -1.54168,1.56752 -1.00769,0.559828 -2.20486,0.559828 -1.92064,0 -3.1092,-1.231623 -1.17995,-1.231622 -1.17995,-3.54845 z m 1.59336,0 q 0,1.757 0.76654,2.6355 0.76653,0.869887 1.92925,0.869887 1.15411,0 1.92064,-0.8785 0.76654,-0.8785 0.76654,-2.678564 0,-1.69671 -0.77515,-2.566598 -0.76653,-0.8785 -1.91203,-0.8785 -1.16272,0 -1.92925,0.869888 -0.76654,0.869887 -0.76654,2.626887 z m 14.78808,4.573367 v -1.343588 q -1.06798,1.550294 -2.90249,1.550294 -0.8096,0 -1.51585,-0.310059 -0.69763,-0.310059 -1.04214,-0.775147 -0.3359,-0.473701 -0.4737,-1.154108 -0.0947,-0.456475 -0.0947,-1.446941 v -5.667186 h 1.55029 v 5.072907 q 0,1.214397 0.0947,1.636421 0.14642,0.611505 0.62012,0.964628 0.4737,0.34451 1.17134,0.34451 0.69763,0 1.30913,-0.353123 0.61151,-0.361735 0.86128,-0.97324 0.25838,-0.620118 0.25838,-1.791451 v -4.900652 h 1.55029 v 9.146735 z m 12.10091,-1.386652 0.22393,1.369427 q -0.65457,0.137803 -1.17133,0.137803 -0.84405,0 -1.30914,-0.266995 -0.46509,-0.266995 -0.65457,-0.697632 -0.18948,-0.43925 -0.18948,-1.834514 v -5.262387 h -1.13688 v -1.205785 h 1.13688 v -2.265151 l 1.54168,-0.930177 v 3.195328 h 1.55891 v 1.205785 h -1.55891 v 5.348514 q 0,0.663181 0.0775,0.852662 0.0861,0.18948 0.26699,0.301446 0.18948,0.111965 0.53399,0.111965 0.25839,0 0.68041,-0.06029 z m 0.93879,-3.186715 q 0,-2.54076 1.41249,-3.76377 1.17994,-1.016303 2.87666,-1.016303 1.88619,0 3.08336,1.240235 1.19717,1.231622 1.19717,3.410647 0,1.765612 -0.53399,2.781916 -0.52538,1.007691 -1.54168,1.56752 -1.00769,0.559828 -2.20486,0.559828 -1.92065,0 -3.10921,-1.231623 -1.17994,-1.231622 -1.17994,-3.54845 z m 1.59336,0 q 0,1.757 0.76653,2.6355 0.76653,0.869887 1.92926,0.869887 1.1541,0 1.92064,-0.8785 0.76653,-0.8785 0.76653,-2.678564 0,-1.69671 -0.77515,-2.566598 -0.76653,-0.8785 -1.91202,-0.8785 -1.16273,0 -1.92926,0.869888 -0.76653,0.869887 -0.76653,2.626887 z"
           id="path9" />
        <path
           style="font-family:Arial;-inkscape-font-specification:Arial;stroke-width:7.83008"
           d="m 50.923531,73.924115 q 0,-2.54076 1.41249,-3.76377 1.179946,-1.016304 2.876656,-1.016304 1.886191,0 3.083363,1.240236 1.197171,1.231622 1.197171,3.410646 0,1.765613 -0.53399,2.781917 -0.525377,1.007691 -1.541681,1.567519 -1.007691,0.559829 -2.204863,0.559829 -1.920642,0 -3.1092,-1.231623 -1.179946,-1.231622 -1.179946,-3.54845 z m 1.593357,0 q 0,1.756999 0.766535,2.635499 0.766534,0.869888 1.929254,0.869888 1.154108,0 1.920642,-0.8785 0.766535,-0.8785 0.766535,-2.678564 0,-1.696711 -0.775147,-2.566598 -0.766535,-0.8785 -1.91203,-0.8785 -1.16272,0 -1.929254,0.869887 -0.766535,0.869888 -0.766535,2.626888 z m 14.788082,4.573367 v -1.343588 q -1.06798,1.550294 -2.902495,1.550294 -0.809598,0 -1.515843,-0.310059 Q 62.189,78.08407 61.84449,77.618982 q -0.335897,-0.473701 -0.473701,-1.154108 -0.09474,-0.456475 -0.09474,-1.446941 v -5.667186 h 1.550294 v 5.072907 q 0,1.214397 0.09474,1.636421 0.146417,0.611505 0.620118,0.964628 0.473701,0.344509 1.171333,0.344509 0.697632,0 1.309137,-0.353122 0.611505,-0.361735 0.861275,-0.97324 0.258382,-0.620118 0.258382,-1.791451 v -4.900652 h 1.550294 v 9.146735 z m 3.79822,0 v -9.146735 h 1.395265 v 1.386652 q 0.53399,-0.97324 0.981853,-1.283299 0.456475,-0.310059 0.999078,-0.310059 0.78376,0 1.593358,0.49954 l -0.533991,1.438328 q -0.568441,-0.335897 -1.136882,-0.335897 -0.508152,0 -0.912951,0.310059 -0.404799,0.301446 -0.577054,0.844049 -0.258382,0.826823 -0.258382,1.808676 v 4.788686 z m 10.421421,-4.056603 1.576133,-0.137804 q 0.111965,0.947402 0.516764,1.558907 0.413412,0.602892 1.274686,0.981853 0.861275,0.370348 1.937868,0.370348 0.956015,0 1.688098,-0.284221 0.732083,-0.28422 1.085206,-0.775147 0.361735,-0.499539 0.361735,-1.085205 0,-0.59428 -0.34451,-1.03353 -0.34451,-0.447862 -1.136882,-0.749309 -0.508152,-0.198093 -2.247926,-0.611504 -1.739775,-0.422025 -2.437407,-0.792373 -0.904338,-0.473701 -1.352201,-1.171333 -0.43925,-0.706245 -0.43925,-1.576132 0,-0.956015 0.542603,-1.782838 0.542603,-0.835437 1.584745,-1.266074 1.042142,-0.430637 2.316828,-0.430637 1.403877,0 2.471858,0.456475 1.076593,0.447863 1.653647,1.326363 0.577054,0.8785 0.620117,1.989544 l -1.60197,0.120578 q -0.129191,-1.197171 -0.8785,-1.808676 -0.740696,-0.611505 -2.19625,-0.611505 -1.515843,0 -2.213475,0.559829 -0.68902,0.551215 -0.68902,1.334975 0,0.680407 0.490927,1.119657 0.482313,0.43925 2.514921,0.904338 2.04122,0.456475 2.799142,0.800985 1.102431,0.508152 1.627809,1.291912 0.525377,0.775147 0.525377,1.791451 0,1.007691 -0.577054,1.903416 -0.577054,0.887113 -1.662259,1.386652 -1.076594,0.490927 -2.428794,0.490927 -1.713937,0 -2.876657,-0.49954 -1.154108,-0.499539 -1.817289,-1.498617 -0.654569,-1.007691 -0.68902,-2.273765 z m 12.135355,7.56199 V 69.350747 h 1.41249 v 1.188559 q 0.49954,-0.697632 1.12827,-1.042142 0.62873,-0.353123 1.524456,-0.353123 1.171333,0 2.067058,0.602892 0.89573,0.602893 1.3522,1.705324 0.45648,1.093818 0.45648,2.402956 0,1.403877 -0.50816,2.532146 -0.49953,1.119657 -1.464162,1.722549 -0.956014,0.59428 -2.015382,0.59428 -0.775147,0 -1.395265,-0.327285 -0.611504,-0.327284 -1.007691,-0.826823 v 4.452789 z m 1.403878,-8.027078 q 0,1.765613 0.714857,2.609662 0.714858,0.844049 1.731162,0.844049 1.033529,0 1.765613,-0.869888 0.740694,-0.8785 0.740694,-2.713014 0,-1.748387 -0.723469,-2.618274 -0.714858,-0.869888 -1.713936,-0.869888 -0.990466,0 -1.757,0.930177 -0.757921,0.921563 -0.757921,2.687176 z m 7.828986,-0.05168 q 0,-2.54076 1.41249,-3.76377 1.17995,-1.016304 2.87666,-1.016304 1.88619,0 3.08336,1.240236 1.19717,1.231622 1.19717,3.410646 0,1.765613 -0.53399,2.781917 -0.52538,1.007691 -1.54168,1.567519 -1.00769,0.559829 -2.20486,0.559829 -1.92065,0 -3.1092,-1.231623 -1.17995,-1.231622 -1.17995,-3.54845 z m 1.59336,0 q 0,1.756999 0.76653,2.635499 0.76654,0.869888 1.92926,0.869888 1.1541,0 1.92064,-0.8785 0.76653,-0.8785 0.76653,-2.678564 0,-1.696711 -0.77514,-2.566598 -0.76654,-0.8785 -1.91203,-0.8785 -1.16272,0 -1.92926,0.869887 -0.76653,0.869888 -0.76653,2.626888 z m 8.79361,4.573367 v -9.146735 h 1.39526 v 1.300525 q 1.00769,-1.507231 2.91111,-1.507231 0.82682,0 1.51584,0.301446 0.69763,0.292834 1.04214,0.775147 0.34451,0.482314 0.48232,1.145495 0.0861,0.430638 0.0861,1.507231 v 5.624122 h -1.5503 v -5.563833 q 0,-0.947402 -0.18087,-1.41249 -0.18086,-0.473701 -0.64595,-0.749309 -0.45648,-0.28422 -1.07659,-0.28422 -0.99047,0 -1.71394,0.62873 -0.71486,0.62873 -0.71486,2.38573 v 4.995392 z m 9.18979,-2.73024 1.53307,-0.241157 q 0.12919,0.921564 0.71486,1.41249 0.59428,0.490927 1.65365,0.490927 1.06798,0 1.58474,-0.430638 0.51677,-0.43925 0.51677,-1.024916 0,-0.525378 -0.45648,-0.826824 -0.31867,-0.206706 -1.58474,-0.525377 -1.70533,-0.430637 -2.36851,-0.740696 -0.65457,-0.318672 -0.99908,-0.869887 -0.33589,-0.559829 -0.33589,-1.231623 0,-0.611505 0.2756,-1.128269 0.28422,-0.525378 0.76654,-0.869888 0.36173,-0.266995 0.98185,-0.447862 0.62873,-0.189481 1.34359,-0.189481 1.07659,0 1.88619,0.310059 0.81821,0.310059 1.20578,0.844049 0.38758,0.525378 0.53399,1.41249 l -1.51584,0.206706 q -0.10335,-0.706245 -0.60289,-1.102431 -0.49093,-0.396186 -1.39527,-0.396186 -1.06798,0 -1.52445,0.353122 -0.45648,0.353123 -0.45648,0.826824 0,0.301446 0.18948,0.542602 0.18948,0.24977 0.59428,0.413412 0.23255,0.08613 1.36943,0.396186 1.64503,0.43925 2.29099,0.723471 0.65457,0.275608 1.02492,0.809598 0.37034,0.53399 0.37034,1.326363 0,0.775147 -0.45647,1.464166 -0.44786,0.680407 -1.30053,1.059368 -0.85266,0.370348 -1.92925,0.370348 -1.78284,0 -2.72163,-0.740696 -0.93017,-0.740696 -1.18856,-2.19625 z m 8.86252,-1.843127 q 0,-2.54076 1.41249,-3.76377 1.17994,-1.016304 2.87665,-1.016304 1.8862,0 3.08337,1.240236 1.19717,1.231622 1.19717,3.410646 0,1.765613 -0.53399,2.781917 -0.52538,1.007691 -1.54168,1.567519 -1.00769,0.559829 -2.20487,0.559829 -1.92064,0 -3.1092,-1.231623 -1.17994,-1.231622 -1.17994,-3.54845 z m 1.59336,0 q 0,1.756999 0.76653,2.635499 0.76653,0.869888 1.92925,0.869888 1.15411,0 1.92065,-0.8785 0.76653,-0.8785 0.76653,-2.678564 0,-1.696711 -0.77515,-2.566598 -0.76653,-0.8785 -1.91203,-0.8785 -1.16272,0 -1.92925,0.869887 -0.76653,0.869888 -0.76653,2.626888 z m 8.77639,4.573367 v -9.146735 h 1.39526 v 1.386652 q 0.53399,-0.97324 0.98185,-1.283299 0.45648,-0.310059 0.99908,-0.310059 0.78376,0 1.59336,0.49954 l -0.53399,1.438328 q -0.56844,-0.335897 -1.13688,-0.335897 -0.50815,0 -0.91295,0.310059 -0.4048,0.301446 -0.57706,0.844049 -0.25838,0.826823 -0.25838,1.808676 v 4.788686 z m 6.32175,-7.381122 v -1.765613 h 1.76561 v 1.765613 z m 0,7.381122 v -1.765613 h 1.76561 v 1.765613 z"
           id="path10" />
      </g>
    </g>
  </g>
</svg>
