<?xml version="1.0" encoding="UTF-8" standalone="no"?>
<!-- Created with Inkscape (http://www.inkscape.org/) -->

<svg
   width="26.458345mm"
   height="12.706565mm"
   viewBox="0 0 26.458345 12.706565"
   version="1.1"
   id="svg1"
   sodipodi:docname="soELEF.svg"
   inkscape:version="1.3 (0e150ed6c4, 2023-07-21)"
   xmlns:inkscape="http://www.inkscape.org/namespaces/inkscape"
   xmlns:sodipodi="http://sodipodi.sourceforge.net/DTD/sodipodi-0.dtd"
   xmlns="http://www.w3.org/2000/svg"
   xmlns:svg="http://www.w3.org/2000/svg">
  <sodipodi:namedview
     id="namedview1"
     pagecolor="#505050"
     bordercolor="#eeeeee"
     borderopacity="1"
     inkscape:showpageshadow="0"
     inkscape:pageopacity="0"
     inkscape:pagecheckerboard="0"
     inkscape:deskcolor="#505050"
     inkscape:document-units="mm"
     inkscape:zoom="4.9921716"
     inkscape:cx="44.669939"
     inkscape:cy="37.358491"
     inkscape:window-width="1920"
     inkscape:window-height="991"
     inkscape:window-x="-9"
     inkscape:window-y="-9"
     inkscape:window-maximized="1"
     inkscape:current-layer="layer1"
     showgrid="false" />
  <defs
     id="defs1" />
  <g
     inkscape:label="Layer 1"
     inkscape:groupmode="layer"
     id="layer1"
     transform="translate(-35.427838,-46.939253)">
    <path
       id="path12"
       style="fill:#282d62;stroke-width:1.5748;stroke-linejoin:round;paint-order:markers stroke fill;fill-opacity:1"
       d="M 56.980528 46.939253 L 55.865867 47.611563 L 55.865867 47.892166 L 55.637457 47.892166 L 55.139296 47.892166 L 54.023085 47.892166 L 53.959523 47.892166 L 53.715094 47.892166 C 53.538889 47.859186 53.360988 47.828142 53.181793 47.798632 C 53.000974 47.768882 52.818574 47.741066 52.635056 47.714916 C 52.451534 47.688746 52.266958 47.664056 52.081085 47.641536 C 51.895238 47.619016 51.708241 47.598364 51.520396 47.579524 C 51.332534 47.560724 51.143519 47.543961 50.954022 47.528881 C 50.764523 47.513771 50.574289 47.50044 50.383514 47.48909 C 50.19276 47.47771 50.001573 47.468278 49.809906 47.460668 C 49.618209 47.453068 49.426477 47.447405 49.23423 47.443615 C 49.042006 47.439815 48.84941 47.437931 48.657005 47.437931 C 48.257725 47.441631 47.859154 47.453111 47.462246 47.473071 L 47.462246 47.192468 L 46.345518 47.192468 L 46.345518 47.5418 C 45.971631 47.56792 45.600488 47.601036 45.232924 47.641536 C 44.986415 47.672296 44.742207 47.706185 44.500152 47.743338 C 44.258098 47.780488 44.018318 47.820813 43.781333 47.864261 C 43.714303 47.857361 43.646886 47.850825 43.578245 47.850825 C 43.481615 47.850825 43.386912 47.857106 43.294541 47.871496 C 43.202171 47.885886 43.111995 47.907962 43.025824 47.939192 C 43.02516 47.939433 43.024974 47.939984 43.024274 47.940225 L 43.022723 47.940742 C 42.979143 47.956372 42.93686 47.974006 42.895599 47.994486 C 42.854339 48.014966 42.814406 48.037962 42.776227 48.063732 C 42.768927 48.068632 42.762686 48.075169 42.755556 48.080269 C 42.655936 48.101779 42.556814 48.123794 42.458417 48.146414 C 42.444507 48.132224 42.431449 48.11721 42.416559 48.10404 C 42.362159 48.05592 42.30111 48.014463 42.234141 47.978983 C 42.191891 47.956303 42.148487 47.936878 42.104433 47.920588 C 42.060373 47.904298 42.015623 47.891188 41.970074 47.880798 C 41.924524 47.870418 41.878293 47.86301 41.831581 47.85806 C 41.784873 47.85306 41.737551 47.850825 41.689988 47.850825 C 41.638848 47.850825 41.589831 47.85411 41.541677 47.85961 L 41.541677 47.192468 L 40.92466 47.192468 L 40.425466 47.192468 L 38.107778 47.191951 L 38.107778 48.296276 L 38.944419 48.296276 L 38.944419 49.374246 C 38.807368 49.438806 38.673383 49.504903 38.542893 49.572167 C 38.412403 49.639427 38.28522 49.707988 38.161521 49.777839 C 37.985779 49.881389 37.81748 49.987685 37.657159 50.096166 C 37.496838 50.204647 37.344681 50.31541 37.20034 50.428446 C 37.055991 50.541492 36.919729 50.656618 36.792096 50.773644 C 36.664463 50.890669 36.545486 51.009613 36.435012 51.130212 C 36.324533 51.250795 36.222881 51.372539 36.130121 51.496081 C 36.037361 51.619623 35.953176 51.744663 35.878456 51.870735 C 35.803738 51.99681 35.73838 52.124145 35.682086 52.252107 C 35.625796 52.380069 35.578687 52.508724 35.541009 52.63813 C 35.503329 52.767526 35.47514 52.897589 35.45626 53.02777 C 35.43738 53.157951 35.427838 53.288449 35.427838 53.418961 C 35.427836 53.549492 35.43739 53.679955 35.45626 53.810151 C 35.47514 53.940349 35.503319 54.070379 35.541009 54.199792 C 35.578689 54.329197 35.625789 54.457853 35.682086 54.585815 C 35.738376 54.713777 35.803742 54.841112 35.878456 54.967187 C 35.953176 55.093259 36.03736 55.217781 36.130121 55.341324 C 36.222881 55.464866 36.324533 55.587126 36.435012 55.70771 C 36.54549 55.828291 36.664463 55.947271 36.792096 56.064277 C 36.919729 56.181285 37.055995 56.296447 37.20034 56.409476 C 37.344681 56.522512 37.496838 56.633276 37.657159 56.741755 C 37.81748 56.850236 37.985779 56.956531 38.161521 57.060082 C 38.337264 57.163639 38.520571 57.264289 38.710842 57.362389 C 38.901113 57.460489 39.0984 57.555858 39.302537 57.64816 C 39.40671 57.6908 39.51219 57.732621 39.619313 57.773734 L 39.619313 58.526143 C 39.619313 58.595843 39.623353 58.665662 39.632233 58.734399 C 39.641133 58.803139 39.655004 58.870691 39.675124 58.935937 C 39.695244 59.001187 39.721562 59.064284 39.755222 59.123522 C 39.788882 59.182762 39.830243 59.238186 39.879763 59.288887 L 39.88183 59.290437 L 39.88338 59.291987 C 39.93406 59.342667 39.989649 59.385124 40.049261 59.419628 C 40.108871 59.454138 40.172525 59.481124 40.238397 59.501794 C 40.304267 59.522464 40.372544 59.536549 40.442002 59.545719 C 40.511462 59.554919 40.581953 59.558638 40.652325 59.558638 L 43.448537 59.558638 C 43.504257 59.558638 43.560519 59.555702 43.616485 59.548302 C 43.672455 59.540902 43.728103 59.529416 43.782367 59.512646 C 43.836637 59.495876 43.889375 59.473456 43.93998 59.445466 C 43.99059 59.417466 44.039164 59.383766 44.084157 59.34263 C 44.129307 59.30124 44.167549 59.258213 44.199912 59.213439 C 44.232272 59.168659 44.258397 59.1217 44.278977 59.072879 C 44.281977 59.065779 44.282995 59.057838 44.285695 59.050658 C 44.339135 59.059058 44.392739 59.067403 44.446409 59.075463 C 44.454009 59.090993 44.458003 59.107915 44.466563 59.123005 C 44.500203 59.182295 44.541489 59.238091 44.591103 59.288887 L 44.59317 59.290437 L 44.59472 59.291987 C 44.64549 59.342757 44.701451 59.385109 44.761118 59.419628 C 44.820788 59.454148 44.884355 59.481154 44.950254 59.501794 C 45.016154 59.522444 45.084391 59.536579 45.153859 59.545719 C 45.223329 59.554819 45.29381 59.558638 45.364182 59.558638 L 45.762608 59.558638 L 47.847752 59.558638 C 47.905072 59.558638 47.962721 59.555702 48.019834 59.548302 C 48.076944 59.540802 48.133649 59.529246 48.188816 59.512646 C 48.243986 59.496036 48.298046 59.47397 48.34953 59.4465 C 48.37691 59.4319 48.401601 59.411313 48.427561 59.393273 C 48.504071 59.395873 48.580402 59.397991 48.657005 59.399991 C 48.780643 59.397091 48.904108 59.393559 49.027525 59.389139 C 49.041365 59.398339 49.053016 59.411358 49.067316 59.419628 C 49.126984 59.454148 49.190552 59.481154 49.256451 59.501794 C 49.322351 59.522444 49.390586 59.536579 49.460056 59.545719 C 49.529526 59.554819 49.600521 59.558638 49.670896 59.558638 L 52.466591 59.558638 C 52.522301 59.558638 52.578568 59.555702 52.63454 59.548302 C 52.69051 59.540902 52.746151 59.528899 52.800421 59.512129 C 52.854691 59.495359 52.90743 59.473466 52.958034 59.445466 C 53.008644 59.417466 53.057227 59.383756 53.102211 59.34263 C 53.147361 59.30124 53.1856 59.258218 53.217967 59.213439 C 53.250337 59.168659 53.276452 59.121705 53.297032 59.072879 C 53.305932 59.051719 53.309829 59.028753 53.316669 59.006733 C 53.344279 59.002533 53.371811 58.998104 53.399351 58.993814 C 53.401151 58.999814 53.401685 59.006448 53.403485 59.012418 C 53.422795 59.075718 53.447669 59.136782 53.479449 59.194836 C 53.511229 59.252886 53.550094 59.308002 53.596238 59.35865 L 53.597788 59.3602 L 53.599339 59.362267 C 53.646049 59.412307 53.694481 59.45497 53.745066 59.490942 C 53.795656 59.526912 53.84798 59.555852 53.903196 59.578792 C 53.958416 59.601732 54.016241 59.618474 54.076829 59.629434 C 54.137419 59.640394 54.200815 59.645971 54.267515 59.645971 C 54.333395 59.645971 54.396214 59.640761 54.456134 59.629951 C 54.516054 59.619191 54.573041 59.602942 54.6277 59.580342 C 54.68235 59.557732 54.734702 59.528569 54.784796 59.493009 C 54.834886 59.457449 54.883261 59.415485 54.92949 59.365885 C 54.97698 59.314995 55.016204 59.259511 55.048863 59.201037 C 55.081523 59.142567 55.107611 59.080968 55.127411 59.017069 C 55.147201 58.953169 55.160875 58.886821 55.169785 58.819665 C 55.178585 58.753265 55.182605 58.686125 55.182705 58.618643 C 55.212445 58.612043 55.241958 58.60515 55.271588 58.59849 C 55.521613 58.53323 55.767004 58.464782 56.006944 58.392301 C 56.107487 58.361931 56.202827 58.328309 56.301499 58.296699 C 56.4383 58.252879 56.577194 58.210055 56.71026 58.163891 C 56.939302 58.084431 57.162512 58.00186 57.37947 57.915844 C 57.596426 57.829824 57.807329 57.740449 58.011472 57.64816 C 58.215616 57.55585 58.412902 57.460486 58.603168 57.362389 C 58.793435 57.264289 58.976738 57.163643 59.152488 57.060082 C 59.328236 56.956528 59.496532 56.850234 59.65685 56.741755 C 59.817168 56.633278 59.969321 56.522515 60.11367 56.409476 C 60.258019 56.296442 60.394284 56.181284 60.521914 56.064277 C 60.649542 55.947273 60.768516 55.828294 60.878998 55.70771 C 60.98948 55.587121 61.09113 55.464864 61.183889 55.341324 C 61.276649 55.217784 61.36083 55.093263 61.435553 54.967187 C 61.510273 54.841108 61.575631 54.713775 61.631923 54.585815 C 61.688213 54.457855 61.735322 54.329202 61.773 54.199792 C 61.81069 54.070374 61.838879 53.940347 61.857749 53.810151 C 61.876619 53.679957 61.886171 53.549495 61.886171 53.418961 C 61.886175 53.331981 61.882139 53.244895 61.873769 53.157995 C 61.865369 53.071105 61.852805 52.98419 61.836045 52.897546 C 61.819275 52.810886 61.79813 52.724379 61.773 52.63813 C 61.74788 52.55187 61.71857 52.465946 61.68515 52.380265 C 61.65175 52.294615 61.614125 52.209375 61.572495 52.124466 C 61.530855 52.039536 61.485354 51.954766 61.435553 51.870735 C 61.385753 51.786695 61.331665 51.703085 61.273806 51.620104 C 61.215946 51.537154 61.154086 51.454816 61.088287 51.373091 C 61.022467 51.291351 60.952637 51.210577 60.878998 51.130212 C 60.805388 51.049812 60.728265 50.969819 60.64697 50.89095 C 60.565632 50.81214 60.480042 50.734503 60.391172 50.657372 C 60.302342 50.580182 60.209868 50.503805 60.11367 50.428446 C 60.01746 50.353126 59.917842 50.278551 59.814463 50.205204 C 59.711095 50.131824 59.6039 50.059431 59.493553 49.988163 C 59.383187 49.916903 59.269623 49.846859 59.152488 49.777839 C 59.143288 49.772639 59.1343 49.767496 59.1251 49.762336 C 59.14397 49.705178 59.159658 49.645491 59.171608 49.584053 C 59.183898 49.520933 59.192213 49.456013 59.197963 49.389749 C 59.203763 49.323489 59.206748 49.256225 59.206748 49.188211 C 59.206748 49.094451 59.200043 49.003133 59.186595 48.91536 C 59.173175 48.82759 59.152993 48.743115 59.124583 48.662145 C 59.096173 48.581175 59.060008 48.503987 59.015029 48.430635 C 58.992539 48.393955 58.967535 48.358286 58.940615 48.323665 C 58.913695 48.289045 58.884315 48.255353 58.852765 48.222896 C 58.791995 48.159946 58.727119 48.105277 58.657945 48.058565 C 58.588765 48.011855 58.515354 47.9731 58.438837 47.942293 C 58.362317 47.911483 58.282373 47.888803 58.199575 47.873563 C 58.116775 47.858323 58.031279 47.850825 57.94326 47.850825 C 57.88412 47.850825 57.826323 47.853864 57.769627 47.860644 C 57.712927 47.867444 57.657375 47.877443 57.603229 47.891133 C 57.602168 47.891401 57.601188 47.891896 57.600128 47.892166 L 57.294204 47.892166 L 56.980528 47.892166 L 56.980528 46.939253 z M 38.50982 47.59451 L 40.522617 47.59451 L 40.522617 47.894233 L 39.682359 47.894233 L 39.682359 50.13389 L 39.346462 50.13389 L 39.346462 47.894233 L 38.50982 47.894233 L 38.50982 47.59451 z M 40.827508 47.59451 L 41.139117 47.59451 L 41.139117 48.505566 C 41.284623 48.336964 41.468265 48.252868 41.689988 48.252868 C 41.826255 48.252868 41.944537 48.279724 42.045005 48.334 C 42.145473 48.387121 42.217251 48.460998 42.259979 48.555692 C 42.303862 48.650386 42.325608 48.78792 42.325608 48.96807 L 42.325608 50.13389 L 42.013999 50.13389 L 42.013999 48.96807 C 42.013999 48.812171 41.979814 48.698999 41.91168 48.628556 C 41.844701 48.556958 41.749474 48.521069 41.625909 48.521069 C 41.533525 48.521069 41.446418 48.545431 41.364427 48.593932 C 41.28359 48.641279 41.225955 48.706244 41.19131 48.788236 C 41.156666 48.870227 41.139117 48.983399 41.139117 49.12775 L 41.139117 50.13389 L 40.827508 50.13389 L 40.827508 47.59451 z M 46.748077 47.59451 L 47.059686 47.59451 L 47.059686 49.042484 L 47.797626 48.294209 L 48.201219 48.294209 L 47.497902 48.976855 L 48.272532 50.13389 L 47.888059 50.13389 L 47.279828 49.193379 L 47.059686 49.404736 L 47.059686 50.13389 L 46.748077 50.13389 L 46.748077 47.59451 z M 56.578485 47.651871 L 56.578485 48.294209 L 56.892161 48.294209 L 56.892161 48.537088 L 56.578485 48.537088 L 56.578485 49.612475 C 56.578485 49.701395 56.583597 49.758635 56.593988 49.784041 C 56.605532 49.809446 56.623477 49.829489 56.647731 49.844502 C 56.673137 49.859514 56.709026 49.86724 56.755218 49.86724 C 56.789864 49.86724 56.835576 49.862921 56.892161 49.854837 L 56.937119 50.130273 C 56.849354 50.148749 56.770763 50.158178 56.701475 50.158178 C 56.588304 50.158178 56.500285 50.140233 56.437925 50.104434 C 56.375565 50.068635 56.332073 50.022132 56.306667 49.964391 C 56.281261 49.905496 56.268426 49.7825 56.268426 49.595422 L 56.268426 48.537088 L 56.0395 48.537088 L 56.0395 48.294209 L 56.268426 48.294209 L 56.268426 47.83894 L 56.578485 47.651871 z M 43.578245 48.252868 C 43.735299 48.252868 43.863009 48.271208 43.961167 48.308162 C 44.059326 48.345116 44.131499 48.392136 44.177692 48.448722 C 44.223884 48.504152 44.25585 48.574623 44.274326 48.660078 C 44.284719 48.713199 44.289829 48.808822 44.289829 48.947399 L 44.289829 49.362878 C 44.289829 49.652734 44.296247 49.836376 44.30895 49.913748 C 44.322807 49.989966 44.349785 50.063447 44.389048 50.13389 L 44.06297 50.13389 C 44.030635 50.069221 44.010197 49.993641 44.000958 49.907031 C 43.885477 50.005189 43.774009 50.074352 43.666612 50.11477 C 43.560369 50.155188 43.445889 50.175748 43.32348 50.175748 C 43.121389 50.175748 42.96591 50.126629 42.857359 50.02847 C 42.748807 49.929157 42.694578 49.802754 42.694578 49.649165 C 42.694578 49.55909 42.715138 49.477093 42.755556 49.403185 C 42.797129 49.328123 42.850446 49.267872 42.91627 49.222835 C 42.983249 49.177797 43.058433 49.143611 43.141579 49.120515 C 43.202784 49.104348 43.295 49.089019 43.418565 49.074006 C 43.670312 49.043981 43.855658 49.008092 43.974603 48.966519 C 43.975756 48.923792 43.97667 48.896419 43.97667 48.884871 C 43.97667 48.757842 43.947199 48.668636 43.888303 48.61667 C 43.808622 48.546227 43.69034 48.510733 43.533286 48.510733 C 43.386626 48.510733 43.277651 48.536798 43.207208 48.588765 C 43.13792 48.639576 43.086702 48.73009 43.053212 48.860583 L 42.748321 48.819242 C 42.776037 48.688748 42.82175 48.583697 42.885264 48.504015 C 42.948778 48.423179 43.040599 48.361225 43.160699 48.318497 C 43.280799 48.274614 43.420036 48.252868 43.578245 48.252868 z M 45.639618 48.252868 C 45.750479 48.252868 45.852124 48.272911 45.944509 48.313329 C 46.038048 48.352593 46.107606 48.404723 46.153798 48.469392 C 46.19999 48.534061 46.232473 48.610949 46.25095 48.699869 C 46.262498 48.757609 46.26852 48.858342 46.26852 49.002693 L 46.26852 50.13389 L 45.956394 50.13389 L 45.956394 49.015095 C 45.956394 48.888067 45.944472 48.793234 45.920221 48.730875 C 45.89597 48.667361 45.852356 48.616934 45.789996 48.57998 C 45.728792 48.541871 45.656618 48.523136 45.573472 48.523136 C 45.440669 48.523136 45.325794 48.564925 45.22879 48.649226 C 45.132941 48.733527 45.08513 48.89372 45.08513 49.1293 L 45.08513 50.13389 L 44.773521 50.13389 L 44.773521 48.294209 L 45.054124 48.294209 L 45.054124 48.555692 C 45.189236 48.353601 45.384406 48.252868 45.639618 48.252868 z M 52.026308 48.252868 C 52.279211 48.252868 52.485907 48.336173 52.646425 48.502465 C 52.806943 48.667602 52.887237 48.896045 52.887237 49.188211 C 52.887237 49.424947 52.851348 49.6116 52.77975 49.747867 C 52.709308 49.882979 52.60596 49.988031 52.469692 50.063093 C 52.33458 50.138156 52.186826 50.175748 52.026308 50.175748 C 51.768786 50.175748 51.560387 50.092838 51.401023 49.927701 C 51.242814 49.762564 51.163312 49.524692 51.163312 49.21405 C 51.163312 48.873382 51.258144 48.620972 51.447532 48.45699 C 51.605741 48.320723 51.798811 48.252868 52.026308 48.252868 z M 57.94326 48.252868 C 58.196162 48.252868 58.402859 48.336173 58.563377 48.502465 C 58.723895 48.667602 58.804189 48.896045 58.804189 49.188211 C 58.804189 49.424947 58.7683 49.6116 58.696702 49.747867 C 58.626258 49.882979 58.52291 49.988031 58.386643 50.063093 C 58.251531 50.138156 58.103777 50.175748 57.94326 50.175748 C 57.685737 50.175748 57.477338 50.092838 57.317975 49.927701 C 57.159767 49.762564 57.08078 49.524692 57.08078 49.21405 C 57.08078 48.873382 57.175612 48.620972 57.365 48.45699 C 57.523208 48.320723 57.715761 48.252868 57.94326 48.252868 z M 49.329315 48.294209 L 49.665212 48.294209 L 50.048134 49.359777 C 50.09779 49.494889 50.142195 49.636621 50.181459 49.785591 C 50.217258 49.642395 50.25996 49.502762 50.309617 49.366495 L 50.702875 48.294209 L 51.014484 48.294209 L 50.314785 50.164896 C 50.239722 50.366987 50.181175 50.506224 50.139602 50.582441 C 50.084171 50.685219 50.02103 50.760404 49.949432 50.807751 C 49.877834 50.856253 49.791914 50.880614 49.6926 50.880614 C 49.632551 50.880614 49.566003 50.86778 49.492096 50.842374 L 49.457473 50.549885 C 49.525606 50.568362 49.584945 50.577274 49.635756 50.577274 C 49.705045 50.577274 49.760581 50.565747 49.802154 50.542651 C 49.843728 50.519554 49.877397 50.487072 49.903957 50.445499 C 49.923589 50.414319 49.955676 50.337036 49.999558 50.213472 C 50.005337 50.19615 50.014249 50.170997 50.026947 50.137507 L 49.329315 48.294209 z M 53.245872 48.294209 L 53.557481 48.294209 L 53.557481 49.314819 C 53.557481 49.477646 53.563904 49.587412 53.576601 49.643997 C 53.596233 49.725989 53.637627 49.790437 53.701141 49.837784 C 53.764655 49.883976 53.843245 49.907031 53.936786 49.907031 C 54.030325 49.907031 54.117828 49.883581 54.199819 49.836234 C 54.281811 49.787732 54.339962 49.722371 54.373452 49.64038 C 54.408095 49.557234 54.425128 49.437249 54.425128 49.280195 L 54.425128 48.294209 L 54.737254 48.294209 L 54.737254 50.13389 L 54.458201 50.13389 L 54.458201 49.863622 C 54.315005 50.071487 54.12023 50.175748 53.874257 50.175748 C 53.765705 50.175748 53.664061 50.154793 53.569366 50.113219 C 53.475827 50.071646 53.406269 50.019516 53.360077 49.957157 C 53.315039 49.893642 53.282952 49.816359 53.264475 49.725129 C 53.251778 49.663925 53.245872 49.566994 53.245872 49.434191 L 53.245872 48.294209 z M 52.026308 48.510733 C 51.870409 48.510733 51.740995 48.569281 51.638218 48.685916 C 51.53544 48.802552 51.483706 48.978469 51.483706 49.21405 C 51.483706 49.44963 51.53544 49.626459 51.638218 49.74425 C 51.740995 49.860885 51.870409 49.918916 52.026308 49.918916 C 52.181052 49.918916 52.309554 49.86049 52.412331 49.742699 C 52.51511 49.624909 52.566844 49.445069 52.566844 49.203714 C 52.566844 48.976217 52.514714 48.804102 52.410781 48.687467 C 52.308004 48.569676 52.179898 48.510733 52.026308 48.510733 z M 57.94326 48.510733 C 57.787359 48.510733 57.657947 48.569281 57.55517 48.685916 C 57.452392 48.802552 57.401174 48.978469 57.401174 49.21405 C 57.401174 49.44963 57.452392 49.626459 57.55517 49.74425 C 57.657947 49.860885 57.787359 49.918916 57.94326 49.918916 C 58.098003 49.918916 58.227021 49.86049 58.329799 49.742699 C 58.432576 49.624909 58.483795 49.445069 58.483795 49.203714 C 58.483795 48.976217 58.431665 48.804102 58.327732 48.687467 C 58.224955 48.569676 58.096848 48.510733 57.94326 48.510733 z M 43.974603 49.210432 C 43.861432 49.256624 43.691932 49.29592 43.46559 49.328254 C 43.337407 49.346731 43.246893 49.367687 43.193772 49.390783 C 43.140651 49.413879 43.099652 49.448065 43.070782 49.493102 C 43.041912 49.536985 43.027374 49.586104 43.027374 49.64038 C 43.027374 49.723526 43.058549 49.792689 43.120908 49.848119 C 43.184423 49.90355 43.276639 49.931318 43.397894 49.931318 C 43.517994 49.931318 43.624749 49.905253 43.718288 49.853287 C 43.811827 49.800166 43.880594 49.727992 43.924477 49.636763 C 43.957966 49.56632 43.974603 49.462576 43.974603 49.325154 L 43.974603 49.210432 z M 45.689744 50.703364 C 45.877977 50.703364 46.043675 50.734144 46.186871 50.795348 C 46.331222 50.855398 46.442295 50.944209 46.519667 51.061999 C 46.597039 51.179789 46.638434 51.313521 46.644208 51.462491 L 46.321747 51.486779 C 46.304425 51.326261 46.245998 51.204968 46.14553 51.122977 C 46.046217 51.040986 45.898859 50.999987 45.703697 50.999987 C 45.500451 50.999987 45.351785 51.037062 45.258246 51.112125 C 45.165861 51.186032 45.119753 51.275755 45.119753 51.380842 C 45.119753 51.472072 45.152631 51.547256 45.218455 51.606152 C 45.283124 51.665047 45.451833 51.725693 45.724367 51.788053 C 45.998056 51.849257 46.1855 51.903091 46.287123 51.949283 C 46.434939 52.017417 46.544309 52.103611 46.614752 52.208699 C 46.685195 52.312631 46.720172 52.433133 46.720172 52.5694 C 46.720172 52.704513 46.681789 52.831706 46.604417 52.951806 C 46.527045 53.070751 46.415576 53.16388 46.27007 53.230859 C 46.125719 53.296683 45.963032 53.329561 45.781728 53.329561 C 45.551921 53.329561 45.358851 53.296287 45.202952 53.229308 C 45.048208 53.16233 44.92652 53.061475 44.8376 52.927518 C 44.749834 52.792406 44.703726 52.639938 44.699107 52.470182 L 45.015883 52.442793 C 45.030896 52.569822 45.065477 52.674478 45.119753 52.756469 C 45.175184 52.837305 45.260587 52.903061 45.376068 52.953873 C 45.491549 53.00353 45.621357 53.028287 45.765708 53.028287 C 45.893892 53.028287 46.007064 53.009035 46.105222 52.970926 C 46.203381 52.932818 46.276467 52.881204 46.323814 52.81538 C 46.372316 52.748401 46.396678 52.675316 46.396678 52.596789 C 46.396678 52.517107 46.373107 52.447945 46.326914 52.38905 C 46.280722 52.329 46.204747 52.278573 46.098505 52.238154 C 46.030371 52.211594 45.879607 52.170595 45.646336 52.115164 C 45.413065 52.058579 45.249982 52.005658 45.156443 51.956001 C 45.035188 51.892487 44.944158 51.813896 44.884108 51.720357 C 44.825213 51.625662 44.795742 51.520215 44.795742 51.40358 C 44.795742 51.275396 44.832026 51.155807 44.904779 51.044946 C 44.977532 50.932929 45.083891 50.847921 45.223623 50.790181 C 45.363354 50.73244 45.518833 50.703364 45.689744 50.703364 z M 39.406923 51.40513 C 39.659826 51.40513 39.866522 51.488435 40.02704 51.654727 C 40.187559 51.819865 40.267853 52.048308 40.267853 52.340474 C 40.267853 52.577209 40.231964 52.763862 40.160366 52.900129 C 40.089923 53.035242 39.986574 53.140293 39.850307 53.215356 C 39.715195 53.290418 39.567441 53.32801 39.406923 53.32801 C 39.149401 53.32801 38.941002 53.245101 38.781638 53.079963 C 38.62343 52.914826 38.544444 52.676955 38.544444 52.366312 C 38.544444 52.025644 38.639276 51.773752 38.828664 51.609769 C 38.986872 51.473502 39.179427 51.40513 39.406923 51.40513 z M 43.282139 51.40513 C 43.387226 51.40513 43.493981 51.438404 43.602533 51.505383 L 43.495046 51.794771 C 43.418829 51.749733 43.342336 51.727074 43.266119 51.727074 C 43.197986 51.727074 43.136944 51.74803 43.082668 51.789603 C 43.028392 51.830021 42.990009 51.886866 42.966913 51.959618 C 42.932269 52.07048 42.91472 52.191773 42.91472 52.32342 L 42.91472 53.286152 L 42.603111 53.286152 L 42.603111 51.446471 L 42.883714 51.446471 L 42.883714 51.725524 C 42.955312 51.595031 43.021068 51.509232 43.081118 51.467659 C 43.142322 51.426086 43.209386 51.40513 43.282139 51.40513 z M 47.957306 51.40513 C 48.114359 51.40513 48.252684 51.445733 48.372784 51.52657 C 48.492885 51.607406 48.583915 51.721369 48.645119 51.869185 C 48.706324 52.015845 48.736586 52.177345 48.736586 52.352876 C 48.736586 52.541109 48.702402 52.710609 48.634267 52.861889 C 48.567289 53.012014 48.469567 53.127285 48.340228 53.208121 C 48.212045 53.287803 48.076609 53.32801 47.934568 53.32801 C 47.830636 53.32801 47.737111 53.305747 47.653965 53.261864 C 47.571974 53.217982 47.504515 53.162962 47.451394 53.095983 L 47.451394 53.991536 L 47.139785 53.991536 L 47.139785 51.446471 L 47.423488 51.446471 L 47.423488 51.685733 C 47.490467 51.592194 47.566047 51.522119 47.650348 51.475927 C 47.734649 51.42858 47.837206 51.40513 47.957306 51.40513 z M 49.858998 51.40513 C 50.111901 51.40513 50.318598 51.488435 50.479116 51.654727 C 50.639634 51.819865 50.719928 52.048308 50.719928 52.340474 C 50.719928 52.577209 50.684039 52.763862 50.612441 52.900129 C 50.541997 53.035242 50.438649 53.140293 50.302382 53.215356 C 50.16727 53.290418 50.019516 53.32801 49.858998 53.32801 C 49.601476 53.32801 49.393076 53.245101 49.233714 53.079963 C 49.075505 52.914826 48.996519 52.676955 48.996519 52.366312 C 48.996519 52.025644 49.091351 51.773752 49.280739 51.609769 C 49.438948 51.473502 49.631502 51.40513 49.858998 51.40513 z M 51.951894 51.40513 C 52.062755 51.40513 52.163884 51.425173 52.256268 51.465592 C 52.349807 51.504855 52.419882 51.556985 52.466074 51.621655 C 52.512267 51.686324 52.544748 51.763211 52.563226 51.852131 C 52.574771 51.909872 52.580279 52.010605 52.580279 52.154955 L 52.580279 53.286152 L 52.268671 53.286152 L 52.268671 52.167358 C 52.268671 52.040329 52.256748 51.945497 52.232497 51.883137 C 52.208247 51.819623 52.164632 51.769713 52.102272 51.732759 C 52.041067 51.69465 51.968893 51.675398 51.885748 51.675398 C 51.752945 51.675398 51.63807 51.717704 51.541066 51.802005 C 51.445217 51.886306 51.397406 52.045982 51.397406 52.281563 L 51.397406 53.286152 L 51.085797 53.286152 L 51.085797 51.446471 L 51.3664 51.446471 L 51.3664 51.708471 C 51.501512 51.50638 51.696681 51.40513 51.951894 51.40513 z M 53.662901 51.40513 C 53.807251 51.40513 53.933654 51.426086 54.042206 51.467659 C 54.151912 51.509232 54.233119 51.565559 54.285085 51.637157 C 54.337052 51.707601 54.372941 51.802433 54.392572 51.921378 L 54.087681 51.962719 C 54.073824 51.868025 54.03322 51.794148 53.966241 51.741027 C 53.900417 51.687906 53.806893 51.661445 53.685638 51.661445 C 53.542442 51.661445 53.440401 51.685412 53.379197 51.732759 C 53.317992 51.780106 53.287213 51.835126 53.287213 51.89864 C 53.287213 51.939058 53.300048 51.975343 53.325454 52.007677 C 53.350859 52.041167 53.39055 52.068935 53.444826 52.090877 C 53.476007 52.102425 53.567827 52.129402 53.720262 52.170975 C 53.940829 52.22987 54.094604 52.278077 54.181215 52.316186 C 54.268981 52.35314 54.337231 52.407369 54.386887 52.478967 C 54.436543 52.550565 54.461818 52.639375 54.461818 52.745617 C 54.461818 52.84955 54.431038 52.947788 54.369834 53.040173 C 54.309785 53.131402 54.222678 53.202785 54.108352 53.253596 C 53.994026 53.303253 53.864612 53.32801 53.720262 53.32801 C 53.481216 53.32801 53.298882 53.277979 53.173008 53.178665 C 53.04829 53.079352 52.968391 52.932511 52.933746 52.737349 L 53.242255 52.688773 C 53.259576 52.812337 53.307388 52.907169 53.385915 52.972993 C 53.465597 53.038817 53.57667 53.071695 53.718711 53.071695 C 53.861907 53.071695 53.96775 53.042619 54.037038 52.984879 C 54.106327 52.925984 54.141424 52.857217 54.141424 52.77869 C 54.141424 52.708247 54.110646 52.65271 54.04944 52.612292 C 54.006713 52.584576 53.900353 52.5496 53.730597 52.506872 C 53.501944 52.449132 53.34306 52.399617 53.25414 52.358044 C 53.166375 52.315316 53.099311 52.256768 53.053119 52.182861 C 53.008082 52.107798 52.985939 52.025405 52.985939 51.93533 C 52.985939 51.853339 53.00428 51.777759 53.041233 51.708471 C 53.079342 51.638028 53.130559 51.57948 53.195229 51.533288 C 53.24373 51.497489 53.309487 51.467622 53.392633 51.443371 C 53.476934 51.417965 53.567051 51.40513 53.662901 51.40513 z M 55.579063 51.40513 C 55.831967 51.40513 56.038662 51.488435 56.19918 51.654727 C 56.359698 51.819865 56.439992 52.048308 56.439992 52.340474 C 56.439992 52.577209 56.404103 52.763862 56.332505 52.900129 C 56.262062 53.035242 56.158713 53.140293 56.022447 53.215356 C 55.887334 53.290418 55.739582 53.32801 55.579063 53.32801 C 55.321541 53.32801 55.113141 53.245101 54.953778 53.079963 C 54.79557 52.914826 54.716066 52.676955 54.716066 52.366312 C 54.716066 52.025644 54.810898 51.773752 55.000287 51.609769 C 55.158494 51.473502 55.351566 51.40513 55.579063 51.40513 z M 57.480755 51.40513 C 57.585843 51.40513 57.692597 51.438404 57.801149 51.505383 L 57.694179 51.794771 C 57.617962 51.749733 57.54147 51.727074 57.465253 51.727074 C 57.397119 51.727074 57.336077 51.74803 57.281801 51.789603 C 57.227525 51.830021 57.188626 51.886866 57.165529 51.959618 C 57.130885 52.07048 57.113853 52.191773 57.113853 52.32342 L 57.113853 53.286152 L 56.801727 53.286152 L 56.801727 51.446471 L 57.08233 51.446471 L 57.08233 51.725524 C 57.153928 51.595031 57.219685 51.509232 57.279734 51.467659 C 57.34094 51.426086 57.408003 51.40513 57.480755 51.40513 z M 40.626487 51.446471 L 40.938096 51.446471 L 40.938096 52.467081 C 40.938096 52.629909 40.944513 52.739674 40.957216 52.79626 C 40.976848 52.878251 41.018759 52.942699 41.082273 52.990046 C 41.145788 53.036239 41.223862 53.059293 41.317401 53.059293 C 41.41094 53.059293 41.49896 53.035843 41.580951 52.988496 C 41.662942 52.939994 41.720577 52.874634 41.754067 52.792642 C 41.788711 52.709496 41.80626 52.589511 41.80626 52.432458 L 41.80626 51.446471 L 42.117869 51.446471 L 42.117869 53.286152 L 41.838816 53.286152 L 41.838816 53.015885 C 41.69562 53.22375 41.501363 53.32801 41.255389 53.32801 C 41.146837 53.32801 41.045192 53.307055 40.950498 53.265482 C 40.856959 53.223909 40.786884 53.171779 40.740692 53.109419 C 40.695655 53.045905 40.664084 52.968622 40.645607 52.877392 C 40.632905 52.816187 40.626487 52.719256 40.626487 52.586454 L 40.626487 51.446471 z M 58.073484 51.446471 L 58.428501 51.446471 L 58.428501 51.802005 L 58.073484 51.802005 L 58.073484 51.446471 z M 47.92785 51.64956 C 47.795047 51.64956 47.677161 51.711909 47.574383 51.836628 C 47.472761 51.960193 47.421938 52.139912 47.421938 52.376647 C 47.421938 52.613383 47.46975 52.788509 47.565598 52.90168 C 47.661447 53.014851 47.77763 53.071695 47.913898 53.071695 C 48.052474 53.071695 48.170756 53.013148 48.268915 52.896512 C 48.368228 52.778722 48.417743 52.596783 48.417743 52.350809 C 48.417743 52.116383 48.369536 51.940862 48.272532 51.824226 C 48.176683 51.707591 48.061808 51.64956 47.92785 51.64956 z M 39.406923 51.662996 C 39.251024 51.662996 39.121611 51.721543 39.018833 51.838179 C 38.916055 51.954814 38.864838 52.130731 38.864838 52.366312 C 38.864838 52.601892 38.916055 52.778722 39.018833 52.896512 C 39.121611 53.013148 39.251024 53.071695 39.406923 53.071695 C 39.561667 53.071695 39.690685 53.012752 39.793463 52.894962 C 39.896241 52.777172 39.947459 52.597331 39.947459 52.355977 C 39.947459 52.12848 39.895329 51.956364 39.791396 51.839729 C 39.688618 51.721939 39.560513 51.662996 39.406923 51.662996 z M 49.858998 51.662996 C 49.7031 51.662996 49.573687 51.721543 49.470908 51.838179 C 49.368131 51.954814 49.316913 52.130731 49.316913 52.366312 C 49.316913 52.601892 49.368131 52.778722 49.470908 52.896512 C 49.573687 53.013148 49.7031 53.071695 49.858998 53.071695 C 50.013742 53.071695 50.14276 53.012752 50.245538 52.894962 C 50.348315 52.777172 50.399534 52.597331 50.399534 52.355977 C 50.399534 52.12848 50.347403 51.956364 50.243471 51.839729 C 50.140693 51.721939 50.012587 51.662996 49.858998 51.662996 z M 55.579063 51.662996 C 55.423164 51.662996 55.29375 51.721543 55.190973 51.838179 C 55.088196 51.954814 55.036977 52.130731 55.036977 52.366312 C 55.036977 52.601892 55.088196 52.778722 55.190973 52.896512 C 55.29375 53.013148 55.423164 53.071695 55.579063 53.071695 C 55.733807 53.071695 55.862307 53.012752 55.965086 52.894962 C 56.067863 52.777172 56.119598 52.597331 56.119598 52.355977 C 56.119598 52.12848 56.067468 51.956364 55.963535 51.839729 C 55.860758 51.721939 55.732653 51.662996 55.579063 51.662996 z M 58.073484 52.931135 L 58.428501 52.931135 L 58.428501 53.286152 L 58.073484 53.286152 L 58.073484 52.931135 z M 45.242743 53.991536 C 45.397487 53.991536 45.522186 54.043149 45.61688 54.147082 C 45.713884 54.248705 45.762608 54.404579 45.762608 54.614753 L 45.762608 58.311685 L 47.848269 58.311685 C 48.014561 58.311685 48.141358 58.351771 48.229124 58.432608 C 48.319199 58.513444 48.363999 58.61509 48.363999 58.737499 C 48.363999 58.862219 48.320507 58.963864 48.232741 59.04239 C 48.144976 59.118607 48.01687 59.156595 47.848269 59.156595 L 45.364182 59.156595 C 45.14015 59.156595 44.978254 59.10708 44.878941 59.007767 C 44.781937 58.908453 44.73373 58.747866 44.73373 58.526143 L 44.73373 54.614753 C 44.73373 54.406888 44.779838 54.251014 44.872223 54.147082 C 44.966917 54.043149 45.090308 53.991536 45.242743 53.991536 z M 40.652325 54.077835 L 43.368439 54.077835 C 43.532421 54.077835 43.653714 54.115032 43.732241 54.18894 C 43.813077 54.260538 43.85368 54.354853 43.85368 54.472643 C 43.85368 54.592743 43.813077 54.690191 43.732241 54.764098 C 43.653714 54.835696 43.532421 54.871069 43.368439 54.871069 L 41.050751 54.871069 L 41.050751 56.118538 L 43.184987 56.118538 C 43.342041 56.118538 43.458619 56.154427 43.534837 56.226025 C 43.613364 56.295313 43.652659 56.38753 43.652659 56.50301 C 43.652659 56.618491 43.614671 56.713323 43.538454 56.787231 C 43.462237 56.858829 43.34435 56.894718 43.184987 56.894718 L 41.050751 56.894718 L 41.050751 58.339074 L 43.44802 58.339074 C 43.609693 58.339074 43.730986 58.377062 43.811822 58.453279 C 43.894968 58.527186 43.936879 58.626732 43.936879 58.751452 C 43.936879 58.871552 43.894968 58.96979 43.811822 59.046008 C 43.730986 59.119914 43.609693 59.156595 43.44802 59.156595 L 40.652325 59.156595 C 40.428293 59.156595 40.266914 59.10708 40.1676 59.007767 C 40.070597 58.908453 40.021873 58.747866 40.021873 58.526143 L 40.021873 54.708288 C 40.021873 54.560473 40.043619 54.440488 40.087502 54.348103 C 40.131385 54.253409 40.199756 54.185554 40.292141 54.143981 C 40.386835 54.100098 40.50682 54.077835 40.652325 54.077835 z M 49.67038 54.077835 L 52.386493 54.077835 C 52.550475 54.077835 52.671768 54.115032 52.750295 54.18894 C 52.831131 54.260538 52.871218 54.354853 52.871218 54.472643 C 52.871218 54.592743 52.831131 54.690191 52.750295 54.764098 C 52.671768 54.835696 52.550475 54.871069 52.386493 54.871069 L 50.068805 54.871069 L 50.068805 56.118538 L 52.203041 56.118538 C 52.360095 56.118538 52.476674 56.154427 52.552891 56.226025 C 52.631418 56.295313 52.670713 56.38753 52.670713 56.50301 C 52.670713 56.618491 52.632209 56.713323 52.555991 56.787231 C 52.479774 56.858829 52.362405 56.894718 52.203041 56.894718 L 50.068805 56.894718 L 50.068805 58.339074 L 52.466074 58.339074 C 52.627747 58.339074 52.74904 58.377062 52.829877 58.453279 C 52.913023 58.527186 52.954417 58.626732 52.954417 58.751452 C 52.954417 58.871552 52.913023 58.96979 52.829877 59.046008 C 52.74904 59.119914 52.627747 59.156595 52.466074 59.156595 L 49.67038 59.156595 C 49.446346 59.156595 49.28445 59.10708 49.185138 59.007767 C 49.088134 58.908453 49.039927 58.747866 49.039927 58.526143 L 49.039927 54.708288 C 49.039927 54.560473 49.061674 54.440488 49.105556 54.348103 C 49.14944 54.253409 49.21781 54.185554 49.310195 54.143981 C 49.404888 54.100098 49.524873 54.077835 49.67038 54.077835 z M 54.38172 54.077835 L 56.806895 54.077835 C 56.970877 54.077835 57.09217 54.115032 57.170697 54.18894 C 57.251533 54.260538 57.292137 54.354853 57.292137 54.472643 C 57.292137 54.592743 57.251533 54.690191 57.170697 54.764098 C 57.09217 54.835696 56.970877 54.871069 56.806895 54.871069 L 54.780145 54.871069 L 54.780145 56.170214 L 56.474615 56.170214 C 56.631669 56.170214 56.748248 56.206103 56.824465 56.277701 C 56.902992 56.34699 56.942287 56.440514 56.942287 56.558304 C 56.942287 56.676094 56.902992 56.769619 56.824465 56.838907 C 56.745939 56.908196 56.62936 56.942777 56.474615 56.942777 L 54.780145 56.942777 L 54.780145 58.616576 C 54.780145 58.82906 54.731938 58.987033 54.634934 59.090966 C 54.540241 59.192589 54.41764 59.243412 54.267515 59.243412 C 54.115081 59.243412 53.990381 59.191282 53.893378 59.087349 C 53.798683 58.983417 53.751267 58.826751 53.751267 58.616576 L 53.751267 54.708288 C 53.751267 54.560473 53.77353 54.440488 53.817413 54.348103 C 53.861295 54.253409 53.929151 54.185554 54.021535 54.143981 C 54.11623 54.100098 54.236215 54.077835 54.38172 54.077835 z " />
    <g
       id="g4"
       transform="matrix(0.20112188,0,0,0.20112188,28.302504,37.498743)"
       style="stroke-width:4.97211">
      <g
         id="text3"
         style="font-size:17.6389px;line-height:1.2;font-family:'Arial Rounded MT Bold';-inkscape-font-specification:'Arial Rounded MT Bold, ';letter-spacing:0px;word-spacing:0px;fill:#ffffff;stroke-width:7.83008;stroke-linejoin:round;paint-order:markers stroke fill"
         aria-label="Thank you to&#10;our Sponsor:" />
    </g>
  </g>
</svg>
