<?xml version="1.0" encoding="UTF-8" standalone="no"?>
<!-- Created with Inkscape (http://www.inkscape.org/) -->

<svg
   width="60.880714mm"
   height="13.229167mm"
   viewBox="0 0 60.880714 13.229167"
   version="1.1"
   id="svg1"
   xml:space="preserve"
   xmlns="http://www.w3.org/2000/svg"
   xmlns:svg="http://www.w3.org/2000/svg"><defs
     id="defs1"><clipPath
       clipPathUnits="userSpaceOnUse"
       id="clipPath163"><path
         d="M 0,400 H 400 V 0 H 0 Z"
         transform="translate(-87.955705,-48.140599)"
         id="path163" /></clipPath><clipPath
       clipPathUnits="userSpaceOnUse"
       id="clipPath165"><path
         d="M 0,400 H 400 V 0 H 0 Z"
         transform="translate(-346.91813,-232.87631)"
         id="path165" /></clipPath><clipPath
       clipPathUnits="userSpaceOnUse"
       id="clipPath167"><path
         d="M 0,400 H 400 V 0 H 0 Z"
         transform="translate(-227.99783,-158.6461)"
         id="path167-8" /></clipPath><clipPath
       clipPathUnits="userSpaceOnUse"
       id="clipPath169"><path
         d="M 0,400 H 400 V 0 H 0 Z"
         transform="translate(-119.11191,-214.50481)"
         id="path169" /></clipPath><clipPath
       clipPathUnits="userSpaceOnUse"
       id="clipPath171"><path
         d="M 0,400 H 400 V 0 H 0 Z"
         transform="translate(-125.30243,-213.76951)"
         id="path171-3" /></clipPath><clipPath
       clipPathUnits="userSpaceOnUse"
       id="clipPath173"><path
         d="M 0,400 H 400 V 0 H 0 Z"
         transform="translate(-187.01543,-56.199604)"
         id="path173" /></clipPath><clipPath
       clipPathUnits="userSpaceOnUse"
       id="clipPath175"><path
         d="M 0,400 H 400 V 0 H 0 Z"
         transform="translate(-255.85111,-204.50231)"
         id="path175-4" /></clipPath><clipPath
       clipPathUnits="userSpaceOnUse"
       id="clipPath177"><path
         d="M 0,400 H 400 V 0 H 0 Z"
         transform="translate(-306.14723,-349.64611)"
         id="path177-7" /></clipPath><clipPath
       clipPathUnits="userSpaceOnUse"
       id="clipPath179"><path
         d="M 0,400 H 400 V 0 H 0 Z"
         transform="translate(-311.73923,-346.05911)"
         id="path179" /></clipPath><clipPath
       clipPathUnits="userSpaceOnUse"
       id="clipPath181"><path
         d="M 0,400 H 400 V 0 H 0 Z"
         transform="translate(-91.287302,-309.60951)"
         id="path181" /></clipPath><clipPath
       clipPathUnits="userSpaceOnUse"
       id="clipPath183"><path
         d="M 0,400 H 400 V 0 H 0 Z"
         transform="translate(-79.041399,-290.8151)"
         id="path183" /></clipPath><clipPath
       clipPathUnits="userSpaceOnUse"
       id="clipPath185"><path
         d="M 0,400 H 400 V 0 H 0 Z"
         transform="translate(-174.71123,-317.38201)"
         id="path185" /></clipPath><clipPath
       clipPathUnits="userSpaceOnUse"
       id="clipPath187"><path
         d="M 0,400 H 400 V 0 H 0 Z"
         transform="translate(-117.2598,-337.37241)"
         id="path187" /></clipPath><clipPath
       clipPathUnits="userSpaceOnUse"
       id="clipPath189"><path
         d="M 0,400 H 400 V 0 H 0 Z"
         transform="translate(-160.78898,-309.90761)"
         id="path189" /></clipPath><clipPath
       clipPathUnits="userSpaceOnUse"
       id="clipPath191"><path
         d="M 0,400 H 400 V 0 H 0 Z"
         transform="translate(-77.514099,-139.83061)"
         id="path191" /></clipPath><clipPath
       clipPathUnits="userSpaceOnUse"
       id="clipPath193"><path
         d="M 0,400 H 400 V 0 H 0 Z"
         transform="translate(-128.0712,-148.53031)"
         id="path193" /></clipPath><clipPath
       clipPathUnits="userSpaceOnUse"
       id="clipPath195"><path
         d="M 0,400 H 400 V 0 H 0 Z"
         transform="translate(-118.9639,-263.49061)"
         id="path195" /></clipPath><clipPath
       clipPathUnits="userSpaceOnUse"
       id="clipPath197"><path
         d="M 0,400 H 400 V 0 H 0 Z"
         transform="translate(-340.29623,-320.77641)"
         id="path197" /></clipPath><clipPath
       clipPathUnits="userSpaceOnUse"
       id="clipPath199"><path
         d="M 0,400 H 400 V 0 H 0 Z"
         transform="translate(-266.34218,-316.75331)"
         id="path199" /></clipPath><clipPath
       clipPathUnits="userSpaceOnUse"
       id="clipPath201"><path
         d="M 0,400 H 400 V 0 H 0 Z"
         transform="translate(-205.00628,-326.38781)"
         id="path201" /></clipPath><clipPath
       clipPathUnits="userSpaceOnUse"
       id="clipPath203"><path
         d="M 0,400 H 400 V 0 H 0 Z"
         transform="translate(-241.30711,-325.49921)"
         id="path203" /></clipPath><clipPath
       clipPathUnits="userSpaceOnUse"
       id="clipPath205"><path
         d="M 0,400 H 400 V 0 H 0 Z"
         transform="translate(-176.2347,-368.53231)"
         id="path205" /></clipPath><clipPath
       clipPathUnits="userSpaceOnUse"
       id="clipPath207"><path
         d="M 0,400 H 400 V 0 H 0 Z"
         transform="translate(-64.035999,-175.069)"
         id="path207" /></clipPath><clipPath
       clipPathUnits="userSpaceOnUse"
       id="clipPath209"><path
         d="M 0,400 H 400 V 0 H 0 Z"
         transform="translate(-109.3377,-238.62011)"
         id="path209" /></clipPath><clipPath
       clipPathUnits="userSpaceOnUse"
       id="clipPath211"><path
         d="M 0,400 H 400 V 0 H 0 Z"
         transform="translate(-60.202299,-196.84981)"
         id="path211" /></clipPath><clipPath
       clipPathUnits="userSpaceOnUse"
       id="clipPath213"><path
         d="M 0,400 H 400 V 0 H 0 Z"
         transform="translate(-106.3215,-222.9806)"
         id="path213" /></clipPath><clipPath
       clipPathUnits="userSpaceOnUse"
       id="clipPath215"><path
         d="M 0,400 H 400 V 0 H 0 Z"
         transform="translate(-225.53483,-327.65711)"
         id="path215" /></clipPath><clipPath
       clipPathUnits="userSpaceOnUse"
       id="clipPath217"><path
         d="M 0,400 H 400 V 0 H 0 Z"
         transform="translate(-220.91701,-350.61551)"
         id="path217" /></clipPath><clipPath
       clipPathUnits="userSpaceOnUse"
       id="clipPath219"><path
         d="M 0,400 H 400 V 0 H 0 Z"
         transform="translate(-83.457205,-205.63541)"
         id="path219" /></clipPath><clipPath
       clipPathUnits="userSpaceOnUse"
       id="clipPath221"><path
         d="M 0,400 H 400 V 0 H 0 Z"
         transform="translate(-156.59378,-202.094)"
         id="path221" /></clipPath><clipPath
       clipPathUnits="userSpaceOnUse"
       id="clipPath223"><path
         d="M 0,400 H 400 V 0 H 0 Z"
         transform="translate(-157.56998,-218.9336)"
         id="path223" /></clipPath><clipPath
       clipPathUnits="userSpaceOnUse"
       id="clipPath225"><path
         d="M 0,400 H 400 V 0 H 0 Z"
         transform="translate(-302.03573,-74.678299)"
         id="path225" /></clipPath><clipPath
       clipPathUnits="userSpaceOnUse"
       id="clipPath227"><path
         d="M 0,400 H 400 V 0 H 0 Z"
         transform="translate(-237.85373,-208.13851)"
         id="path227" /></clipPath></defs><g
     id="layer1"
     transform="translate(260.38947,-841.9553)"><script
       id="mesh_polyfill"
       type="text/javascript">&#10;!function(){const t=&quot;http://www.w3.org/2000/svg&quot;,e=&quot;http://www.w3.org/1999/xlink&quot;,s=&quot;http://www.w3.org/1999/xhtml&quot;,r=2;if(document.createElementNS(t,&quot;meshgradient&quot;).x)return;const n=(t,e,s,r)=&gt;{let n=new x(.5*(e.x+s.x),.5*(e.y+s.y)),o=new x(.5*(t.x+e.x),.5*(t.y+e.y)),i=new x(.5*(s.x+r.x),.5*(s.y+r.y)),a=new x(.5*(n.x+o.x),.5*(n.y+o.y)),h=new x(.5*(n.x+i.x),.5*(n.y+i.y)),l=new x(.5*(a.x+h.x),.5*(a.y+h.y));return[[t,o,a,l],[l,h,i,r]]},o=t=&gt;{let e=t[0].distSquared(t[1]),s=t[2].distSquared(t[3]),r=.25*t[0].distSquared(t[2]),n=.25*t[1].distSquared(t[3]),o=e&gt;s?e:s,i=r&gt;n?r:n;return 18*(o&gt;i?o:i)},i=(t,e)=&gt;Math.sqrt(t.distSquared(e)),a=(t,e)=&gt;t.scale(2/3).add(e.scale(1/3)),h=t=&gt;{let e,s,r,n,o,i,a,h=new g;return t.match(/(\w+\(\s*[^)]+\))+/g).forEach(t=&gt;{let l=t.match(/[\w.-]+/g),d=l.shift();switch(d){case&quot;translate&quot;:2===l.length?e=new g(1,0,0,1,l[0],l[1]):(console.error(&quot;mesh.js: translate does not have 2 arguments!&quot;),e=new g(1,0,0,1,0,0)),h=h.append(e);break;case&quot;scale&quot;:1===l.length?s=new g(l[0],0,0,l[0],0,0):2===l.length?s=new g(l[0],0,0,l[1],0,0):(console.error(&quot;mesh.js: scale does not have 1 or 2 arguments!&quot;),s=new g(1,0,0,1,0,0)),h=h.append(s);break;case&quot;rotate&quot;:if(3===l.length&amp;&amp;(e=new g(1,0,0,1,l[1],l[2]),h=h.append(e)),l[0]){r=l[0]*Math.PI/180;let t=Math.cos(r),e=Math.sin(r);Math.abs(t)&lt;1e-16&amp;&amp;(t=0),Math.abs(e)&lt;1e-16&amp;&amp;(e=0),a=new g(t,e,-e,t,0,0),h=h.append(a)}else console.error(&quot;math.js: No argument to rotate transform!&quot;);3===l.length&amp;&amp;(e=new g(1,0,0,1,-l[1],-l[2]),h=h.append(e));break;case&quot;skewX&quot;:l[0]?(r=l[0]*Math.PI/180,n=Math.tan(r),o=new g(1,0,n,1,0,0),h=h.append(o)):console.error(&quot;math.js: No argument to skewX transform!&quot;);break;case&quot;skewY&quot;:l[0]?(r=l[0]*Math.PI/180,n=Math.tan(r),i=new g(1,n,0,1,0,0),h=h.append(i)):console.error(&quot;math.js: No argument to skewY transform!&quot;);break;case&quot;matrix&quot;:6===l.length?h=h.append(new g(...l)):console.error(&quot;math.js: Incorrect number of arguments for matrix!&quot;);break;default:console.error(&quot;mesh.js: Unhandled transform type: &quot;+d)}}),h},l=t=&gt;{let e=[],s=t.split(/[ ,]+/);for(let t=0,r=s.length-1;t&lt;r;t+=2)e.push(new x(parseFloat(s[t]),parseFloat(s[t+1])));return e},d=(t,e)=&gt;{for(let s in e)t.setAttribute(s,e[s])},c=(t,e,s,r,n)=&gt;{let o,i,a=[0,0,0,0];for(let h=0;h&lt;3;++h)e[h]&lt;t[h]&amp;&amp;e[h]&lt;s[h]||t[h]&lt;e[h]&amp;&amp;s[h]&lt;e[h]?a[h]=0:(a[h]=.5*((e[h]-t[h])/r+(s[h]-e[h])/n),o=Math.abs(3*(e[h]-t[h])/r),i=Math.abs(3*(s[h]-e[h])/n),a[h]&gt;o?a[h]=o:a[h]&gt;i&amp;&amp;(a[h]=i));return a},u=[[1,0,0,0,0,0,0,0,0,0,0,0,0,0,0,0],[0,0,0,0,1,0,0,0,0,0,0,0,0,0,0,0],[-3,3,0,0,-2,-1,0,0,0,0,0,0,0,0,0,0],[2,-2,0,0,1,1,0,0,0,0,0,0,0,0,0,0],[0,0,0,0,0,0,0,0,1,0,0,0,0,0,0,0],[0,0,0,0,0,0,0,0,0,0,0,0,1,0,0,0],[0,0,0,0,0,0,0,0,-3,3,0,0,-2,-1,0,0],[0,0,0,0,0,0,0,0,2,-2,0,0,1,1,0,0],[-3,0,3,0,0,0,0,0,-2,0,-1,0,0,0,0,0],[0,0,0,0,-3,0,3,0,0,0,0,0,-2,0,-1,0],[9,-9,-9,9,6,3,-6,-3,6,-6,3,-3,4,2,2,1],[-6,6,6,-6,-3,-3,3,3,-4,4,-2,2,-2,-2,-1,-1],[2,0,-2,0,0,0,0,0,1,0,1,0,0,0,0,0],[0,0,0,0,2,0,-2,0,0,0,0,0,1,0,1,0],[-6,6,6,-6,-4,-2,4,2,-3,3,-3,3,-2,-1,-2,-1],[4,-4,-4,4,2,2,-2,-2,2,-2,2,-2,1,1,1,1]],f=t=&gt;{let e=[];for(let s=0;s&lt;16;++s){e[s]=0;for(let r=0;r&lt;16;++r)e[s]+=u[s][r]*t[r]}return e},p=(t,e,s)=&gt;{const r=e*e,n=s*s,o=e*e*e,i=s*s*s;return t[0]+t[1]*e+t[2]*r+t[3]*o+t[4]*s+t[5]*s*e+t[6]*s*r+t[7]*s*o+t[8]*n+t[9]*n*e+t[10]*n*r+t[11]*n*o+t[12]*i+t[13]*i*e+t[14]*i*r+t[15]*i*o},y=t=&gt;{let e=[],s=[],r=[];for(let s=0;s&lt;4;++s)e[s]=[],e[s][0]=n(t[0][s],t[1][s],t[2][s],t[3][s]),e[s][1]=[],e[s][1].push(...n(...e[s][0][0])),e[s][1].push(...n(...e[s][0][1])),e[s][2]=[],e[s][2].push(...n(...e[s][1][0])),e[s][2].push(...n(...e[s][1][1])),e[s][2].push(...n(...e[s][1][2])),e[s][2].push(...n(...e[s][1][3]));for(let t=0;t&lt;8;++t){s[t]=[];for(let r=0;r&lt;4;++r)s[t][r]=[],s[t][r][0]=n(e[0][2][t][r],e[1][2][t][r],e[2][2][t][r],e[3][2][t][r]),s[t][r][1]=[],s[t][r][1].push(...n(...s[t][r][0][0])),s[t][r][1].push(...n(...s[t][r][0][1])),s[t][r][2]=[],s[t][r][2].push(...n(...s[t][r][1][0])),s[t][r][2].push(...n(...s[t][r][1][1])),s[t][r][2].push(...n(...s[t][r][1][2])),s[t][r][2].push(...n(...s[t][r][1][3]))}for(let t=0;t&lt;8;++t){r[t]=[];for(let e=0;e&lt;8;++e)r[t][e]=[],r[t][e][0]=s[t][0][2][e],r[t][e][1]=s[t][1][2][e],r[t][e][2]=s[t][2][2][e],r[t][e][3]=s[t][3][2][e]}return r};class x{constructor(t,e){this.x=t||0,this.y=e||0}toString(){return`(x=${this.x}, y=${this.y})`}clone(){return new x(this.x,this.y)}add(t){return new x(this.x+t.x,this.y+t.y)}scale(t){return void 0===t.x?new x(this.x*t,this.y*t):new x(this.x*t.x,this.y*t.y)}distSquared(t){let e=this.x-t.x,s=this.y-t.y;return e*e+s*s}transform(t){let e=this.x*t.a+this.y*t.c+t.e,s=this.x*t.b+this.y*t.d+t.f;return new x(e,s)}}class g{constructor(t,e,s,r,n,o){void 0===t?(this.a=1,this.b=0,this.c=0,this.d=1,this.e=0,this.f=0):(this.a=t,this.b=e,this.c=s,this.d=r,this.e=n,this.f=o)}toString(){return`affine: ${this.a} ${this.c} ${this.e} \n       ${this.b} ${this.d} ${this.f}`}append(t){t instanceof g||console.error(&quot;mesh.js: argument to Affine.append is not affine!&quot;);let e=this.a*t.a+this.c*t.b,s=this.b*t.a+this.d*t.b,r=this.a*t.c+this.c*t.d,n=this.b*t.c+this.d*t.d,o=this.a*t.e+this.c*t.f+this.e,i=this.b*t.e+this.d*t.f+this.f;return new g(e,s,r,n,o,i)}}class w{constructor(t,e){this.nodes=t,this.colors=e}paintCurve(t,e){if(o(this.nodes)&gt;r){const s=n(...this.nodes);let r=[[],[]],o=[[],[]];for(let t=0;t&lt;4;++t)r[0][t]=this.colors[0][t],r[1][t]=(this.colors[0][t]+this.colors[1][t])/2,o[0][t]=r[1][t],o[1][t]=this.colors[1][t];let i=new w(s[0],r),a=new w(s[1],o);i.paintCurve(t,e),a.paintCurve(t,e)}else{let s=Math.round(this.nodes[0].x);if(s&gt;=0&amp;&amp;s&lt;e){let r=4*(~~this.nodes[0].y*e+s);t[r]=Math.round(this.colors[0][0]),t[r+1]=Math.round(this.colors[0][1]),t[r+2]=Math.round(this.colors[0][2]),t[r+3]=Math.round(this.colors[0][3])}}}}class m{constructor(t,e){this.nodes=t,this.colors=e}split(){let t=[[],[],[],[]],e=[[],[],[],[]],s=[[[],[]],[[],[]]],r=[[[],[]],[[],[]]];for(let s=0;s&lt;4;++s){const r=n(this.nodes[0][s],this.nodes[1][s],this.nodes[2][s],this.nodes[3][s]);t[0][s]=r[0][0],t[1][s]=r[0][1],t[2][s]=r[0][2],t[3][s]=r[0][3],e[0][s]=r[1][0],e[1][s]=r[1][1],e[2][s]=r[1][2],e[3][s]=r[1][3]}for(let t=0;t&lt;4;++t)s[0][0][t]=this.colors[0][0][t],s[0][1][t]=this.colors[0][1][t],s[1][0][t]=(this.colors[0][0][t]+this.colors[1][0][t])/2,s[1][1][t]=(this.colors[0][1][t]+this.colors[1][1][t])/2,r[0][0][t]=s[1][0][t],r[0][1][t]=s[1][1][t],r[1][0][t]=this.colors[1][0][t],r[1][1][t]=this.colors[1][1][t];return[new m(t,s),new m(e,r)]}paint(t,e){let s,n=!1;for(let t=0;t&lt;4;++t)if((s=o([this.nodes[0][t],this.nodes[1][t],this.nodes[2][t],this.nodes[3][t]]))&gt;r){n=!0;break}if(n){let s=this.split();s[0].paint(t,e),s[1].paint(t,e)}else{new w([...this.nodes[0]],[...this.colors[0]]).paintCurve(t,e)}}}class b{constructor(t){this.readMesh(t),this.type=t.getAttribute(&quot;type&quot;)||&quot;bilinear&quot;}readMesh(t){let e=[[]],s=[[]],r=Number(t.getAttribute(&quot;x&quot;)),n=Number(t.getAttribute(&quot;y&quot;));e[0][0]=new x(r,n);let o=t.children;for(let t=0,r=o.length;t&lt;r;++t){e[3*t+1]=[],e[3*t+2]=[],e[3*t+3]=[],s[t+1]=[];let r=o[t].children;for(let n=0,o=r.length;n&lt;o;++n){let o=r[n].children;for(let r=0,i=o.length;r&lt;i;++r){let i=r;0!==t&amp;&amp;++i;let h,d=o[r].getAttribute(&quot;path&quot;),c=&quot;l&quot;;null!=d&amp;&amp;(c=(h=d.match(/\s*([lLcC])\s*(.*)/))[1]);let u=l(h[2]);switch(c){case&quot;l&quot;:0===i?(e[3*t][3*n+3]=u[0].add(e[3*t][3*n]),e[3*t][3*n+1]=a(e[3*t][3*n],e[3*t][3*n+3]),e[3*t][3*n+2]=a(e[3*t][3*n+3],e[3*t][3*n])):1===i?(e[3*t+3][3*n+3]=u[0].add(e[3*t][3*n+3]),e[3*t+1][3*n+3]=a(e[3*t][3*n+3],e[3*t+3][3*n+3]),e[3*t+2][3*n+3]=a(e[3*t+3][3*n+3],e[3*t][3*n+3])):2===i?(0===n&amp;&amp;(e[3*t+3][3*n+0]=u[0].add(e[3*t+3][3*n+3])),e[3*t+3][3*n+1]=a(e[3*t+3][3*n],e[3*t+3][3*n+3]),e[3*t+3][3*n+2]=a(e[3*t+3][3*n+3],e[3*t+3][3*n])):(e[3*t+1][3*n]=a(e[3*t][3*n],e[3*t+3][3*n]),e[3*t+2][3*n]=a(e[3*t+3][3*n],e[3*t][3*n]));break;case&quot;L&quot;:0===i?(e[3*t][3*n+3]=u[0],e[3*t][3*n+1]=a(e[3*t][3*n],e[3*t][3*n+3]),e[3*t][3*n+2]=a(e[3*t][3*n+3],e[3*t][3*n])):1===i?(e[3*t+3][3*n+3]=u[0],e[3*t+1][3*n+3]=a(e[3*t][3*n+3],e[3*t+3][3*n+3]),e[3*t+2][3*n+3]=a(e[3*t+3][3*n+3],e[3*t][3*n+3])):2===i?(0===n&amp;&amp;(e[3*t+3][3*n+0]=u[0]),e[3*t+3][3*n+1]=a(e[3*t+3][3*n],e[3*t+3][3*n+3]),e[3*t+3][3*n+2]=a(e[3*t+3][3*n+3],e[3*t+3][3*n])):(e[3*t+1][3*n]=a(e[3*t][3*n],e[3*t+3][3*n]),e[3*t+2][3*n]=a(e[3*t+3][3*n],e[3*t][3*n]));break;case&quot;c&quot;:0===i?(e[3*t][3*n+1]=u[0].add(e[3*t][3*n]),e[3*t][3*n+2]=u[1].add(e[3*t][3*n]),e[3*t][3*n+3]=u[2].add(e[3*t][3*n])):1===i?(e[3*t+1][3*n+3]=u[0].add(e[3*t][3*n+3]),e[3*t+2][3*n+3]=u[1].add(e[3*t][3*n+3]),e[3*t+3][3*n+3]=u[2].add(e[3*t][3*n+3])):2===i?(e[3*t+3][3*n+2]=u[0].add(e[3*t+3][3*n+3]),e[3*t+3][3*n+1]=u[1].add(e[3*t+3][3*n+3]),0===n&amp;&amp;(e[3*t+3][3*n+0]=u[2].add(e[3*t+3][3*n+3]))):(e[3*t+2][3*n]=u[0].add(e[3*t+3][3*n]),e[3*t+1][3*n]=u[1].add(e[3*t+3][3*n]));break;case&quot;C&quot;:0===i?(e[3*t][3*n+1]=u[0],e[3*t][3*n+2]=u[1],e[3*t][3*n+3]=u[2]):1===i?(e[3*t+1][3*n+3]=u[0],e[3*t+2][3*n+3]=u[1],e[3*t+3][3*n+3]=u[2]):2===i?(e[3*t+3][3*n+2]=u[0],e[3*t+3][3*n+1]=u[1],0===n&amp;&amp;(e[3*t+3][3*n+0]=u[2])):(e[3*t+2][3*n]=u[0],e[3*t+1][3*n]=u[1]);break;default:console.error(&quot;mesh.js: &quot;+c+&quot; invalid path type.&quot;)}if(0===t&amp;&amp;0===n||r&gt;0){let e=window.getComputedStyle(o[r]).stopColor.match(/^rgb\s*\(\s*(\d+)\s*,\s*(\d+)\s*,\s*(\d+)\s*\)$/i),a=window.getComputedStyle(o[r]).stopOpacity,h=255;a&amp;&amp;(h=Math.floor(255*a)),e&amp;&amp;(0===i?(s[t][n]=[],s[t][n][0]=Math.floor(e[1]),s[t][n][1]=Math.floor(e[2]),s[t][n][2]=Math.floor(e[3]),s[t][n][3]=h):1===i?(s[t][n+1]=[],s[t][n+1][0]=Math.floor(e[1]),s[t][n+1][1]=Math.floor(e[2]),s[t][n+1][2]=Math.floor(e[3]),s[t][n+1][3]=h):2===i?(s[t+1][n+1]=[],s[t+1][n+1][0]=Math.floor(e[1]),s[t+1][n+1][1]=Math.floor(e[2]),s[t+1][n+1][2]=Math.floor(e[3]),s[t+1][n+1][3]=h):3===i&amp;&amp;(s[t+1][n]=[],s[t+1][n][0]=Math.floor(e[1]),s[t+1][n][1]=Math.floor(e[2]),s[t+1][n][2]=Math.floor(e[3]),s[t+1][n][3]=h))}}e[3*t+1][3*n+1]=new x,e[3*t+1][3*n+2]=new x,e[3*t+2][3*n+1]=new x,e[3*t+2][3*n+2]=new x,e[3*t+1][3*n+1].x=(-4*e[3*t][3*n].x+6*(e[3*t][3*n+1].x+e[3*t+1][3*n].x)+-2*(e[3*t][3*n+3].x+e[3*t+3][3*n].x)+3*(e[3*t+3][3*n+1].x+e[3*t+1][3*n+3].x)+-1*e[3*t+3][3*n+3].x)/9,e[3*t+1][3*n+2].x=(-4*e[3*t][3*n+3].x+6*(e[3*t][3*n+2].x+e[3*t+1][3*n+3].x)+-2*(e[3*t][3*n].x+e[3*t+3][3*n+3].x)+3*(e[3*t+3][3*n+2].x+e[3*t+1][3*n].x)+-1*e[3*t+3][3*n].x)/9,e[3*t+2][3*n+1].x=(-4*e[3*t+3][3*n].x+6*(e[3*t+3][3*n+1].x+e[3*t+2][3*n].x)+-2*(e[3*t+3][3*n+3].x+e[3*t][3*n].x)+3*(e[3*t][3*n+1].x+e[3*t+2][3*n+3].x)+-1*e[3*t][3*n+3].x)/9,e[3*t+2][3*n+2].x=(-4*e[3*t+3][3*n+3].x+6*(e[3*t+3][3*n+2].x+e[3*t+2][3*n+3].x)+-2*(e[3*t+3][3*n].x+e[3*t][3*n+3].x)+3*(e[3*t][3*n+2].x+e[3*t+2][3*n].x)+-1*e[3*t][3*n].x)/9,e[3*t+1][3*n+1].y=(-4*e[3*t][3*n].y+6*(e[3*t][3*n+1].y+e[3*t+1][3*n].y)+-2*(e[3*t][3*n+3].y+e[3*t+3][3*n].y)+3*(e[3*t+3][3*n+1].y+e[3*t+1][3*n+3].y)+-1*e[3*t+3][3*n+3].y)/9,e[3*t+1][3*n+2].y=(-4*e[3*t][3*n+3].y+6*(e[3*t][3*n+2].y+e[3*t+1][3*n+3].y)+-2*(e[3*t][3*n].y+e[3*t+3][3*n+3].y)+3*(e[3*t+3][3*n+2].y+e[3*t+1][3*n].y)+-1*e[3*t+3][3*n].y)/9,e[3*t+2][3*n+1].y=(-4*e[3*t+3][3*n].y+6*(e[3*t+3][3*n+1].y+e[3*t+2][3*n].y)+-2*(e[3*t+3][3*n+3].y+e[3*t][3*n].y)+3*(e[3*t][3*n+1].y+e[3*t+2][3*n+3].y)+-1*e[3*t][3*n+3].y)/9,e[3*t+2][3*n+2].y=(-4*e[3*t+3][3*n+3].y+6*(e[3*t+3][3*n+2].y+e[3*t+2][3*n+3].y)+-2*(e[3*t+3][3*n].y+e[3*t][3*n+3].y)+3*(e[3*t][3*n+2].y+e[3*t+2][3*n].y)+-1*e[3*t][3*n].y)/9}}this.nodes=e,this.colors=s}paintMesh(t,e){let s=(this.nodes.length-1)/3,r=(this.nodes[0].length-1)/3;if(&quot;bilinear&quot;===this.type||s&lt;2||r&lt;2){let n;for(let o=0;o&lt;s;++o)for(let s=0;s&lt;r;++s){let r=[];for(let t=3*o,e=3*o+4;t&lt;e;++t)r.push(this.nodes[t].slice(3*s,3*s+4));let i=[];i.push(this.colors[o].slice(s,s+2)),i.push(this.colors[o+1].slice(s,s+2)),(n=new m(r,i)).paint(t,e)}}else{let n,o,a,h,l,d,u;const x=s,g=r;s++,r++;let w=new Array(s);for(let t=0;t&lt;s;++t){w[t]=new Array(r);for(let e=0;e&lt;r;++e)w[t][e]=[],w[t][e][0]=this.nodes[3*t][3*e],w[t][e][1]=this.colors[t][e]}for(let t=0;t&lt;s;++t)for(let e=0;e&lt;r;++e)0!==t&amp;&amp;t!==x&amp;&amp;(n=i(w[t-1][e][0],w[t][e][0]),o=i(w[t+1][e][0],w[t][e][0]),w[t][e][2]=c(w[t-1][e][1],w[t][e][1],w[t+1][e][1],n,o)),0!==e&amp;&amp;e!==g&amp;&amp;(n=i(w[t][e-1][0],w[t][e][0]),o=i(w[t][e+1][0],w[t][e][0]),w[t][e][3]=c(w[t][e-1][1],w[t][e][1],w[t][e+1][1],n,o));for(let t=0;t&lt;r;++t){w[0][t][2]=[],w[x][t][2]=[];for(let e=0;e&lt;4;++e)n=i(w[1][t][0],w[0][t][0]),o=i(w[x][t][0],w[x-1][t][0]),w[0][t][2][e]=n&gt;0?2*(w[1][t][1][e]-w[0][t][1][e])/n-w[1][t][2][e]:0,w[x][t][2][e]=o&gt;0?2*(w[x][t][1][e]-w[x-1][t][1][e])/o-w[x-1][t][2][e]:0}for(let t=0;t&lt;s;++t){w[t][0][3]=[],w[t][g][3]=[];for(let e=0;e&lt;4;++e)n=i(w[t][1][0],w[t][0][0]),o=i(w[t][g][0],w[t][g-1][0]),w[t][0][3][e]=n&gt;0?2*(w[t][1][1][e]-w[t][0][1][e])/n-w[t][1][3][e]:0,w[t][g][3][e]=o&gt;0?2*(w[t][g][1][e]-w[t][g-1][1][e])/o-w[t][g-1][3][e]:0}for(let s=0;s&lt;x;++s)for(let r=0;r&lt;g;++r){let n=i(w[s][r][0],w[s+1][r][0]),o=i(w[s][r+1][0],w[s+1][r+1][0]),c=i(w[s][r][0],w[s][r+1][0]),x=i(w[s+1][r][0],w[s+1][r+1][0]),g=[[],[],[],[]];for(let t=0;t&lt;4;++t){(d=[])[0]=w[s][r][1][t],d[1]=w[s+1][r][1][t],d[2]=w[s][r+1][1][t],d[3]=w[s+1][r+1][1][t],d[4]=w[s][r][2][t]*n,d[5]=w[s+1][r][2][t]*n,d[6]=w[s][r+1][2][t]*o,d[7]=w[s+1][r+1][2][t]*o,d[8]=w[s][r][3][t]*c,d[9]=w[s+1][r][3][t]*x,d[10]=w[s][r+1][3][t]*c,d[11]=w[s+1][r+1][3][t]*x,d[12]=0,d[13]=0,d[14]=0,d[15]=0,u=f(d);for(let e=0;e&lt;9;++e){g[t][e]=[];for(let s=0;s&lt;9;++s)g[t][e][s]=p(u,e/8,s/8),g[t][e][s]&gt;255?g[t][e][s]=255:g[t][e][s]&lt;0&amp;&amp;(g[t][e][s]=0)}}h=[];for(let t=3*s,e=3*s+4;t&lt;e;++t)h.push(this.nodes[t].slice(3*r,3*r+4));l=y(h);for(let s=0;s&lt;8;++s)for(let r=0;r&lt;8;++r)(a=new m(l[s][r],[[[g[0][s][r],g[1][s][r],g[2][s][r],g[3][s][r]],[g[0][s][r+1],g[1][s][r+1],g[2][s][r+1],g[3][s][r+1]]],[[g[0][s+1][r],g[1][s+1][r],g[2][s+1][r],g[3][s+1][r]],[g[0][s+1][r+1],g[1][s+1][r+1],g[2][s+1][r+1],g[3][s+1][r+1]]]])).paint(t,e)}}}transform(t){if(t instanceof x)for(let e=0,s=this.nodes.length;e&lt;s;++e)for(let s=0,r=this.nodes[0].length;s&lt;r;++s)this.nodes[e][s]=this.nodes[e][s].add(t);else if(t instanceof g)for(let e=0,s=this.nodes.length;e&lt;s;++e)for(let s=0,r=this.nodes[0].length;s&lt;r;++s)this.nodes[e][s]=this.nodes[e][s].transform(t)}scale(t){for(let e=0,s=this.nodes.length;e&lt;s;++e)for(let s=0,r=this.nodes[0].length;s&lt;r;++s)this.nodes[e][s]=this.nodes[e][s].scale(t)}}document.querySelectorAll(&quot;rect,circle,ellipse,path,text&quot;).forEach((r,n)=&gt;{let o=r.getAttribute(&quot;id&quot;);o||(o=&quot;patchjs_shape&quot;+n,r.setAttribute(&quot;id&quot;,o));const i=r.style.fill.match(/^url\(\s*&quot;?\s*#([^\s&quot;]+)&quot;?\s*\)/),a=r.style.stroke.match(/^url\(\s*&quot;?\s*#([^\s&quot;]+)&quot;?\s*\)/);if(i&amp;&amp;i[1]){const a=document.getElementById(i[1]);if(a&amp;&amp;&quot;meshgradient&quot;===a.nodeName){const i=r.getBBox();let l=document.createElementNS(s,&quot;canvas&quot;);d(l,{width:i.width,height:i.height});const c=l.getContext(&quot;2d&quot;);let u=c.createImageData(i.width,i.height);const f=new b(a);&quot;objectBoundingBox&quot;===a.getAttribute(&quot;gradientUnits&quot;)&amp;&amp;f.scale(new x(i.width,i.height));const p=a.getAttribute(&quot;gradientTransform&quot;);null!=p&amp;&amp;f.transform(h(p)),&quot;userSpaceOnUse&quot;===a.getAttribute(&quot;gradientUnits&quot;)&amp;&amp;f.transform(new x(-i.x,-i.y)),f.paintMesh(u.data,l.width),c.putImageData(u,0,0);const y=document.createElementNS(t,&quot;image&quot;);d(y,{width:i.width,height:i.height,x:i.x,y:i.y});let g=l.toDataURL();y.setAttributeNS(e,&quot;xlink:href&quot;,g),r.parentNode.insertBefore(y,r),r.style.fill=&quot;none&quot;;const w=document.createElementNS(t,&quot;use&quot;);w.setAttributeNS(e,&quot;xlink:href&quot;,&quot;#&quot;+o);const m=&quot;patchjs_clip&quot;+n,M=document.createElementNS(t,&quot;clipPath&quot;);M.setAttribute(&quot;id&quot;,m),M.appendChild(w),r.parentElement.insertBefore(M,r),y.setAttribute(&quot;clip-path&quot;,&quot;url(#&quot;+m+&quot;)&quot;),u=null,l=null,g=null}}if(a&amp;&amp;a[1]){const o=document.getElementById(a[1]);if(o&amp;&amp;&quot;meshgradient&quot;===o.nodeName){const i=parseFloat(r.style.strokeWidth.slice(0,-2))*(parseFloat(r.style.strokeMiterlimit)||parseFloat(r.getAttribute(&quot;stroke-miterlimit&quot;))||1),a=r.getBBox(),l=Math.trunc(a.width+i),c=Math.trunc(a.height+i),u=Math.trunc(a.x-i/2),f=Math.trunc(a.y-i/2);let p=document.createElementNS(s,&quot;canvas&quot;);d(p,{width:l,height:c});const y=p.getContext(&quot;2d&quot;);let g=y.createImageData(l,c);const w=new b(o);&quot;objectBoundingBox&quot;===o.getAttribute(&quot;gradientUnits&quot;)&amp;&amp;w.scale(new x(l,c));const m=o.getAttribute(&quot;gradientTransform&quot;);null!=m&amp;&amp;w.transform(h(m)),&quot;userSpaceOnUse&quot;===o.getAttribute(&quot;gradientUnits&quot;)&amp;&amp;w.transform(new x(-u,-f)),w.paintMesh(g.data,p.width),y.putImageData(g,0,0);const M=document.createElementNS(t,&quot;image&quot;);d(M,{width:l,height:c,x:0,y:0});let S=p.toDataURL();M.setAttributeNS(e,&quot;xlink:href&quot;,S);const k=&quot;pattern_clip&quot;+n,A=document.createElementNS(t,&quot;pattern&quot;);d(A,{id:k,patternUnits:&quot;userSpaceOnUse&quot;,width:l,height:c,x:u,y:f}),A.appendChild(M),o.parentNode.appendChild(A),r.style.stroke=&quot;url(#&quot;+k+&quot;)&quot;,g=null,p=null,S=null}}})}();&#10;</script><g
       id="g287"
       transform="matrix(0.10924711,0,0,0.10924711,-249.33322,891.21647)"
       style="stroke-width:9.15354"><path
         id="path128"
         d="m 0,0 c 0.241,0.412 0.464,0.836 0.727,1.234 7.722,11.7 15.45,23.397 23.173,35.098 8.41,12.743 16.816,25.49 25.223,38.237 2.434,3.689 4.838,7.399 7.312,11.061 0.629,0.932 0.789,1.784 0.499,2.877 -2.761,10.399 -5.479,20.809 -8.21,31.217 -0.521,1.986 -1.049,3.971 -1.561,5.96 -0.107,0.416 -0.159,0.848 -0.263,1.424 0.573,0.059 0.999,0.142 1.426,0.142 13.619,0.006 27.237,0.014 40.855,-0.019 0.774,-0.002 1.585,-0.247 2.315,-0.539 4.661,-1.866 9.5,-2.774 14.512,-2.761 1.114,0.003 2.23,0.098 3.34,0.2 2.144,0.199 2.009,0.307 2.613,-1.833 2.013,-7.132 4.027,-14.265 6.04,-21.398 2.013,-7.132 4.014,-14.269 6.051,-21.395 0.285,-0.996 0.233,-1.898 -0.117,-2.865 -6.231,-17.212 -12.443,-34.43 -18.659,-51.647 -1.244,-3.444 -2.524,-6.874 -3.711,-10.337 -0.34,-0.992 -0.884,-1.392 -1.901,-1.529 C 82.674,10.834 65.688,8.509 48.701,6.19 32.998,4.047 17.294,1.901 1.59,-0.239 1.123,-0.302 0.647,-0.303 0.176,-0.333 0.117,-0.222 0.059,-0.111 0,0"
         style="fill:#00608b;fill-opacity:1;fill-rule:nonzero;stroke:none;stroke-width:9.15354"
         transform="matrix(0.35277776,0,0,-0.35277776,-91.134925,-335.715)"
         clip-path="url(#clipPath163)" /><path
         id="path129"
         d="m 0,0 c -0.62,-0.121 -0.905,-0.216 -1.194,-0.227 -5.127,-0.19 -10.255,-0.355 -15.382,-0.555 -6.33,-0.246 -12.658,-0.533 -18.988,-0.779 -4.057,-0.157 -8.117,-0.256 -12.174,-0.412 -5.26,-0.202 -10.518,-0.444 -15.778,-0.65 -3.924,-0.154 -7.848,-0.269 -11.772,-0.416 -4.235,-0.158 -8.469,-0.334 -12.704,-0.498 -2.72,-0.105 -5.44,-0.199 -8.159,-0.303 -4.369,-0.168 -8.737,-0.344 -13.106,-0.509 -2.764,-0.105 -5.529,-0.195 -8.293,-0.297 -0.713,-0.026 -1.433,-0.02 -2.137,-0.118 -1.011,-0.14 -1.649,0.214 -2.196,1.101 -3.249,5.273 -7.597,9.437 -12.954,12.534 -4.871,2.817 -10.115,4.458 -15.738,4.828 -10.517,0.691 -19.693,-2.516 -27.573,-9.502 -3.56,-3.155 -6.295,-6.928 -8.409,-11.158 -0.42,-0.841 -0.916,-1.179 -1.847,-1.181 -3.972,-0.011 -7.944,-0.067 -11.916,-0.138 -3.078,-0.054 -6.154,-0.157 -9.232,-0.228 -0.301,-0.007 -0.604,0.06 -1.009,0.103 0,0.521 -0.056,0.997 0.008,1.455 1.112,7.924 3.339,15.528 6.638,22.814 3.75,8.284 8.723,15.756 14.887,22.449 6.474,7.03 13.917,12.796 22.336,17.305 10.214,5.471 21.11,8.666 32.642,9.706 10.635,0.96 21.026,-0.272 31.203,-3.467 8.951,-2.81 17.399,-6.751 25.447,-11.52 6.067,-3.594 12.043,-7.35 17.951,-11.2 C -42.803,28.292 -26.213,17.36 -9.601,6.463 -6.838,4.651 -4.072,2.844 -1.315,1.025 -0.932,0.773 -0.589,0.462 0,0"
         style="fill:#00608b;fill-opacity:1;fill-rule:nonzero;stroke:none;stroke-width:9.15354"
         transform="matrix(0.35277776,0,0,-0.35277776,0.22126181,-400.88565)"
         clip-path="url(#clipPath165)" /><path
         id="path130"
         d="m 0,0 c -0.096,-0.063 -0.191,-0.125 -0.287,-0.188 0.251,-0.656 0.466,-1.329 0.759,-1.965 1.883,-4.089 3.701,-8.21 5.694,-12.244 3.84,-7.769 8.325,-15.172 13.078,-22.408 8.61,-13.109 18.096,-25.535 28.916,-36.921 4.03,-4.24 8.222,-8.301 12.671,-12.092 6.131,-5.223 12.617,-9.93 19.952,-13.36 0.992,-0.463 2.003,-0.884 3.148,-1.389 v 27.679 c -1.099,0.505 -2.161,0.966 -3.2,1.477 -6.14,3.016 -11.926,6.623 -17.562,10.488 -12.799,8.777 -24.601,18.76 -35.635,29.651 -3.934,3.883 -7.772,7.877 -11.45,12.002 C 11.727,-14.382 7.577,-9.307 3.363,-4.292 2.195,-2.901 1.119,-1.433 0,0 m 100.632,-119.411 c -0.813,0.151 -1.464,0.237 -2.097,0.394 -6.476,1.61 -12.733,3.838 -18.783,6.653 -10.929,5.086 -20.832,11.754 -29.929,19.616 -3.913,3.383 -7.722,6.905 -11.37,10.571 -6.493,6.523 -12.442,13.536 -18.041,20.845 -10.29,13.434 -19.223,27.733 -27.204,42.637 -5.611,10.478 -10.671,21.217 -15.126,32.239 -0.692,1.712 -0.685,1.719 1.002,2.382 7.139,2.805 12.91,7.352 17.348,13.603 0.251,0.354 0.527,0.689 0.931,1.214 0.365,-0.519 0.673,-0.871 0.887,-1.272 C 1.7,23.009 5.325,16.648 9.301,10.493 14.643,2.225 20.584,-5.576 27.26,-12.821 36.565,-22.918 47.062,-31.61 58.334,-39.4 68.156,-46.188 78.436,-52.213 89,-57.759 c 3.439,-1.806 6.893,-3.584 10.376,-5.302 1.019,-0.502 1.41,-1.131 1.408,-2.274 -0.031,-17.504 -0.021,-35.007 -0.027,-52.511 0,-0.469 -0.073,-0.939 -0.125,-1.565"
         style="fill:#a7a9ac;fill-opacity:1;fill-rule:nonzero;stroke:none;stroke-width:9.15354"
         transform="matrix(0.35277776,0,0,-0.35277776,-41.731177,-374.69889)"
         clip-path="url(#clipPath167)" /><path
         id="path133"
         d="m 0,0 c -0.056,-10.417 1.573,-20.558 4.577,-30.5 0.142,-0.47 0.304,-0.939 0.388,-1.42 0.221,-1.272 -0.499,-2.479 -1.671,-2.864 -1.259,-0.415 -2.593,0.129 -3.16,1.319 -0.191,0.401 -0.325,0.832 -0.456,1.258 -2.562,8.316 -4.155,16.807 -4.608,25.504 -0.549,10.547 0.318,20.967 2.843,31.231 2.775,11.282 7.262,21.839 13.504,31.644 3.897,6.12 8.351,11.798 13.434,16.985 17.832,18.203 39.422,28.774 64.712,31.672 12.57,1.441 25.055,0.665 37.364,-2.371 6.522,-1.609 12.813,-3.873 18.897,-6.728 8.861,-4.158 16.955,-9.537 24.72,-15.439 3.66,-2.782 7.26,-5.645 10.884,-8.477 0.385,-0.301 0.78,-0.606 1.104,-0.969 0.863,-0.962 0.903,-2.335 0.141,-3.324 -0.743,-0.963 -2.12,-1.252 -3.263,-0.633 -0.468,0.252 -0.885,0.601 -1.31,0.926 -4.924,3.778 -9.781,7.645 -14.78,11.32 -8.966,6.593 -18.552,12.076 -29.107,15.753 -7.46,2.599 -15.132,4.2 -22.989,4.957 -4.629,0.445 -9.274,0.565 -13.912,0.39 C 86.064,99.812 75.168,97.591 64.668,93.506 53.143,89.021 42.71,82.708 33.593,74.361 14.501,56.88 3.405,35.267 0.616,9.479 0.275,6.334 0.199,3.161 0,0"
         style="fill:#00608b;fill-opacity:1;fill-rule:nonzero;stroke:none;stroke-width:9.15354"
         transform="matrix(0.35277776,0,0,-0.35277776,-80.143711,-394.4046)"
         clip-path="url(#clipPath169)" /><path
         id="path137"
         d="m 0,0 c -0.103,15.275 3.353,29.733 10.298,43.334 4.126,8.079 9.35,15.393 15.59,21.992 7.687,8.13 16.524,14.709 26.517,19.705 11.275,5.636 23.215,8.92 35.809,9.768 12.51,0.843 24.784,-0.389 36.762,-4.189 6.92,-2.196 13.49,-5.192 19.81,-8.75 7.522,-4.234 14.628,-9.098 21.573,-14.208 1.151,-0.846 2.301,-1.693 3.442,-2.552 0.32,-0.24 0.645,-0.491 0.901,-0.793 0.816,-0.958 0.827,-2.406 0.063,-3.339 -0.752,-0.918 -2.04,-1.199 -3.154,-0.628 -0.512,0.262 -0.98,0.619 -1.443,0.966 -6.606,4.964 -13.35,9.727 -20.439,13.984 -7.606,4.568 -15.552,8.393 -24.088,10.912 -6.363,1.877 -12.858,2.967 -19.478,3.422 -7.562,0.52 -15.077,0.235 -22.544,-1.062 C 65.696,86.144 53.034,80.744 41.672,72.34 29.636,63.439 20.344,52.239 13.841,38.754 9.018,28.753 6.218,18.192 5.332,7.123 c -0.86,-10.75 0.246,-21.302 3.16,-31.675 0.133,-0.472 0.291,-0.941 0.376,-1.423 0.247,-1.401 -0.527,-2.643 -1.84,-3.003 -1.249,-0.344 -2.505,0.279 -3.062,1.538 -0.144,0.324 -0.237,0.673 -0.335,1.016 C 1.614,-19.357 0.318,-12.167 0.01,-4.816 -0.057,-3.213 0,-1.605 0,0"
         style="fill:#00608b;fill-opacity:1;fill-rule:nonzero;stroke:none;stroke-width:9.15354"
         transform="matrix(0.35277776,0,0,-0.35277776,-77.959832,-394.1452)"
         clip-path="url(#clipPath171)" /><path
         id="path141"
         d="m 0,0 c -0.186,-0.633 -0.287,-1.051 -0.431,-1.453 -1.34,-3.738 -2.719,-7.464 -4.013,-11.218 -0.355,-1.029 -0.895,-1.471 -1.998,-1.581 -10.656,-1.059 -21.307,-2.173 -31.959,-3.27 -9.987,-1.028 -19.974,-2.054 -29.96,-3.081 -10.031,-1.031 -20.063,-2.06 -30.094,-3.092 -3.196,-0.328 -6.391,-0.664 -9.587,-0.987 -0.522,-0.052 -1.05,-0.051 -1.801,-0.085 0.177,0.475 0.238,0.81 0.41,1.071 1.956,2.987 3.941,5.954 5.889,8.947 0.439,0.674 1.029,0.888 1.781,0.99 10.834,1.465 21.667,2.95 32.499,4.43 17.598,2.404 35.196,4.808 52.794,7.211 4.952,0.677 9.905,1.352 14.858,2.018 C -1.151,-0.037 -0.68,-0.04 0,0"
         style="fill:#00608b;fill-opacity:1;fill-rule:nonzero;stroke:none;stroke-width:9.15354"
         transform="matrix(0.35277776,0,0,-0.35277776,-56.188857,-338.55804)"
         clip-path="url(#clipPath173)" /><path
         id="path143"
         d="m 0,0 c 1.194,0.078 2.386,0.189 3.581,0.228 4.458,0.149 8.918,0.259 13.375,0.411 4.458,0.153 8.914,0.348 13.371,0.508 3.075,0.111 6.152,0.184 9.228,0.292 4.591,0.162 9.181,0.346 13.772,0.51 2.942,0.106 5.885,0.189 8.827,0.292 4.769,0.167 9.538,0.343 14.307,0.511 2.853,0.101 5.706,0.199 8.559,0.29 2.006,0.063 4.014,0.098 6.019,0.172 1.677,0.062 1.692,0.071 1.694,-1.666 0.005,-4.33 0.002,-8.66 0.002,-12.99 0,-2.365 0.005,-4.731 -0.005,-7.097 -0.002,-0.475 -0.064,-0.95 -0.102,-1.477 -0.44,0 -0.753,-0.054 -1.041,0.007 C 61.049,-13.472 30.513,-6.927 -0.024,-0.382 -0.016,-0.255 -0.008,-0.127 0,0"
         style="fill:#a7a9ac;fill-opacity:1;fill-rule:nonzero;stroke:none;stroke-width:9.15354"
         transform="matrix(0.35277776,0,0,-0.35277776,-31.905161,-390.87594)"
         clip-path="url(#clipPath175)" /><path
         id="path144"
         d="m 0,0 c -0.318,-0.556 -0.545,-0.988 -0.804,-1.398 -2.408,-3.81 -4.822,-7.615 -7.233,-11.422 -5.514,-8.708 -11.024,-17.417 -16.541,-26.123 -1.018,-1.607 -1.021,-1.59 -2.658,-0.658 -2.248,1.28 -4.508,2.541 -6.761,3.813 -1.163,0.656 -1.201,0.783 -0.626,1.988 0.057,0.121 0.119,0.239 0.179,0.359 6.585,13.219 13.176,26.435 19.75,39.66 1.068,2.148 1.137,1.706 2.621,0.874 3.658,-2.05 7.311,-4.11 10.955,-6.186 C -0.721,0.681 -0.396,0.326 0,0"
         style="fill:#00789a;fill-opacity:1;fill-rule:nonzero;stroke:none;stroke-width:9.15354"
         transform="matrix(0.35277776,0,0,-0.35277776,-14.161806,-442.07944)"
         clip-path="url(#clipPath177)" /><path
         id="path145"
         d="m 0,0 c 0.458,-0.276 0.816,-0.453 1.132,-0.687 1.971,-1.464 3.943,-2.926 5.893,-4.417 1.525,-1.166 3.026,-2.362 4.524,-3.563 1.077,-0.862 1.082,-0.959 0.196,-2.002 -6.559,-7.723 -13.121,-15.444 -19.681,-23.166 -3.063,-3.605 -6.124,-7.213 -9.186,-10.82 -0.173,-0.204 -0.337,-0.416 -0.515,-0.617 -0.857,-0.966 -0.881,-0.97 -1.948,-0.153 -2.198,1.682 -4.393,3.367 -6.589,5.052 -1.08,0.829 -1.106,0.87 -0.313,2.033 3.396,4.978 6.801,9.95 10.214,14.917 5.107,7.431 10.222,14.857 15.34,22.28 C -0.666,-0.756 -0.338,-0.411 0,0"
         style="fill:#00789a;fill-opacity:1;fill-rule:nonzero;stroke:none;stroke-width:9.15354"
         transform="matrix(0.35277776,0,0,-0.35277776,-12.189072,-440.81403)"
         clip-path="url(#clipPath179)" /><path
         id="path146"
         d="m 0,0 c 0.571,1.441 8.512,11.145 10.041,12.267 0.601,-0.513 1.249,-1.035 1.864,-1.594 5.909,-5.374 11.815,-10.752 17.718,-16.132 5.013,-4.569 10.023,-9.141 15.031,-13.716 0.751,-0.686 0.77,-0.893 0.135,-1.667 -1.839,-2.245 -3.685,-4.484 -5.542,-6.714 -0.736,-0.883 -0.881,-0.9 -1.875,-0.173 -3.386,2.479 -6.765,4.969 -10.138,7.466 C 18.55,-13.834 9.87,-7.399 1.191,-0.963 0.771,-0.651 0.376,-0.305 0,0"
         style="fill:#00789a;fill-opacity:1;fill-rule:nonzero;stroke:none;stroke-width:9.15354"
         transform="matrix(0.35277776,0,0,-0.35277776,-89.959612,-427.95542)"
         clip-path="url(#clipPath181)" /><path
         id="path147"
         d="m 0,0 c 0.288,0.566 0.463,0.971 0.69,1.345 2.179,3.583 4.367,7.161 6.554,10.739 0.093,0.152 0.192,0.301 0.295,0.447 0.679,0.962 0.848,1.004 1.819,0.345 2.768,-1.88 5.53,-3.769 8.293,-5.657 9.577,-6.543 19.152,-13.09 28.732,-19.631 1.642,-1.121 1.635,-1.1 0.587,-2.789 -1.341,-2.161 -2.658,-4.337 -3.976,-6.511 -0.752,-1.24 -0.801,-1.279 -2.083,-0.587 -5.417,2.926 -10.828,5.862 -16.238,8.8 C 17.067,-9.369 9.464,-5.235 1.862,-1.098 1.283,-0.783 0.726,-0.429 0,0"
         style="fill:#00789a;fill-opacity:1;fill-rule:nonzero;stroke:none;stroke-width:9.15354"
         transform="matrix(0.35277776,0,0,-0.35277776,-94.279694,-421.32517)"
         clip-path="url(#clipPath183)" /><path
         id="path148"
         d="m 0,0 c -0.146,-0.213 -0.257,-0.457 -0.441,-0.62 -0.196,-0.172 -0.456,-0.275 -0.695,-0.394 -2.433,-1.219 -4.864,-2.44 -7.301,-3.65 -1.273,-0.632 -1.317,-0.618 -2.055,0.681 -3.547,6.245 -7.095,12.491 -10.633,18.742 -3.779,6.678 -7.547,13.363 -11.32,20.044 -0.109,0.195 -0.224,0.386 -0.33,0.582 -0.615,1.141 -0.615,1.253 0.547,1.841 3.9,1.974 7.812,3.925 11.729,5.865 1.303,0.646 1.376,0.604 1.967,-0.739 2.799,-6.372 5.595,-12.746 8.388,-19.12 C -6.94,15.917 -3.74,8.601 -0.539,1.285 -0.361,0.877 -0.195,0.465 0,0"
         style="fill:#00789a;fill-opacity:1;fill-rule:nonzero;stroke:none;stroke-width:9.15354"
         transform="matrix(0.35277776,0,0,-0.35277776,-60.529505,-430.69739)"
         clip-path="url(#clipPath185)" /><path
         id="path150"
         d="m 0,0 c 1.01,-0.662 30.072,-35.656 30.726,-36.986 -2.598,-2.384 -5.237,-4.805 -7.9,-7.249 -0.368,0.278 -0.633,0.44 -0.853,0.65 -1.353,1.296 -2.707,2.593 -4.042,3.909 -4.164,4.105 -8.314,8.224 -12.479,12.328 -5.247,5.169 -10.503,10.327 -15.751,15.494 -0.375,0.369 -0.714,0.774 -1.196,1.3 C -7.737,-6.822 -3.921,-3.321 0,0"
         style="fill:#00789a;fill-opacity:1;fill-rule:nonzero;stroke:none;stroke-width:9.15354"
         transform="matrix(0.35277776,0,0,-0.35277776,-80.797091,-437.74955)"
         clip-path="url(#clipPath187)" /><path
         id="path151"
         d="m 0,0 c -0.208,-0.245 -0.362,-0.524 -0.596,-0.688 -2.524,-1.762 -5.055,-3.517 -7.6,-5.248 -0.668,-0.455 -0.862,-0.409 -1.437,0.323 -1.625,2.071 -3.227,4.161 -4.83,6.249 -7.417,9.665 -14.835,19.329 -22.242,29.001 -1.818,2.375 -1.762,1.962 0.505,3.576 3.09,2.198 6.24,4.312 9.368,6.458 0.331,0.227 0.681,0.425 1.02,0.641 0.459,0.293 0.841,0.227 1.139,-0.238 0.217,-0.338 0.434,-0.675 0.645,-1.017 C -16.229,26.408 -8.43,13.759 -0.633,1.108 -0.424,0.769 -0.238,0.417 0,0"
         style="fill:#00789a;fill-opacity:1;fill-rule:nonzero;stroke:none;stroke-width:9.15354"
         transform="matrix(0.35277776,0,0,-0.35277776,-65.440966,-428.06058)"
         clip-path="url(#clipPath189)" /><path
         id="path231"
         d="m 0,0 c -0.237,0.299 -0.533,0.564 -0.695,0.895 -0.825,1.684 -1.637,3.375 -2.412,5.082 -1.071,2.357 -2.117,4.726 -3.151,7.1 -0.524,1.204 -0.469,1.328 0.702,1.793 12.738,5.061 25.479,10.118 38.219,15.175 1.411,0.56 2.816,1.136 4.236,1.671 0.926,0.35 1.082,0.267 1.522,-0.691 1.211,-2.637 2.418,-5.276 3.614,-7.92 0.42,-0.929 0.395,-1.074 -0.541,-1.579 C 39.098,20.232 36.683,18.972 34.268,17.714 24.608,12.682 14.945,7.655 5.282,2.626 3.896,1.905 2.511,1.183 1.119,0.472 0.805,0.311 0.468,0.195 0,0"
         style="fill:#00789a;fill-opacity:1;fill-rule:nonzero;stroke:none;stroke-width:9.15354"
         transform="matrix(0.35277776,0,0,-0.35277776,-94.818491,-368.0612)"
         clip-path="url(#clipPath191)" /><path
         id="path232"
         d="m 0,0 c -0.24,-0.243 -0.452,-0.524 -0.724,-0.723 -1.44,-1.056 -2.891,-2.096 -4.344,-3.133 -10.755,-7.671 -21.507,-15.347 -32.272,-23.004 -1.545,-1.099 -1.527,-1.568 -2.909,0.595 -2.187,3.422 -4.367,6.848 -6.536,10.282 -0.858,1.359 -0.834,1.426 0.58,2.232 12.138,6.915 24.278,13.825 36.417,20.737 1.048,0.596 2.099,1.185 3.138,1.795 0.565,0.331 0.993,0.264 1.355,-0.306 1.654,-2.598 3.32,-5.188 4.976,-7.784 C -0.202,0.508 -0.134,0.293 0,0"
         style="fill:#00789a;fill-opacity:1;fill-rule:nonzero;stroke:none;stroke-width:9.15354"
         transform="matrix(0.35277776,0,0,-0.35277776,-76.98307,-371.13026)"
         clip-path="url(#clipPath193)" /><path
         id="path233"
         d="m 0,0 c -0.202,-0.503 -0.327,-0.836 -0.468,-1.163 -1.065,-2.455 -2.138,-4.907 -3.2,-7.363 -0.595,-1.378 -0.657,-1.424 -2.088,-0.892 -6.271,2.332 -12.54,4.67 -18.807,7.013 -7.647,2.858 -15.29,5.723 -22.935,8.585 -0.209,0.078 -0.419,0.153 -0.626,0.236 -1.13,0.455 -1.226,0.592 -0.766,1.662 1.758,4.099 3.535,8.191 5.327,12.275 0.477,1.087 0.631,1.116 1.731,0.642 0.286,-0.124 0.565,-0.265 0.845,-0.404 7.909,-3.93 15.816,-7.864 23.728,-11.789 C -11.825,6.106 -6.382,3.427 -0.951,0.725 -0.593,0.546 -0.301,0.233 0,0"
         style="fill:#00789a;fill-opacity:1;fill-rule:nonzero;stroke:none;stroke-width:9.15354"
         transform="matrix(0.35277776,0,0,-0.35277776,-80.195923,-411.6857)"
         clip-path="url(#clipPath195)" /><path
         id="path234"
         d="m 0,0 c -0.346,-0.368 -0.624,-0.709 -0.947,-0.999 -1.692,-1.519 -3.397,-3.025 -5.097,-4.536 -6.332,-5.631 -12.665,-11.261 -18.996,-16.893 -3.265,-2.904 -6.526,-5.814 -9.793,-8.717 -0.84,-0.747 -0.972,-0.758 -1.758,0.034 -1.54,1.551 -3.047,3.135 -4.582,4.691 -0.5,0.508 -1.053,0.963 -1.563,1.462 -0.759,0.743 -0.766,0.966 -0.038,1.779 0.952,1.063 1.922,2.11 2.886,3.163 5.783,6.314 11.565,12.628 17.349,18.941 3.465,3.781 6.932,7.559 10.4,11.338 0.181,0.197 0.38,0.377 0.568,0.568 0.385,0.389 0.771,0.399 1.162,0.009 0.063,-0.063 0.13,-0.121 0.193,-0.185 3.195,-3.24 6.393,-6.477 9.58,-9.725 C -0.398,0.687 -0.244,0.362 0,0"
         style="fill:#00789a;fill-opacity:1;fill-rule:nonzero;stroke:none;stroke-width:9.15354"
         transform="matrix(0.35277776,0,0,-0.35277776,-2.1147982,-431.89485)"
         clip-path="url(#clipPath197)" /><path
         id="path235"
         d="M 0,0 C -0.364,0.133 -0.658,0.233 -0.947,0.347 -3.48,1.34 -6.012,2.333 -8.544,3.33 c -1.415,0.558 -1.423,0.564 -0.927,2.049 3.383,10.11 6.771,20.217 10.154,30.326 1.344,4.018 2.68,8.04 4.021,12.059 0.113,0.339 0.23,0.676 0.358,1.009 0.174,0.449 0.505,0.602 0.962,0.468 0.257,-0.076 0.51,-0.164 0.759,-0.262 4.028,-1.578 8.059,-3.147 12.08,-4.744 1.268,-0.504 1.292,-0.618 0.724,-1.875 C 13.412,28.705 7.235,15.052 1.057,1.399 0.91,1.074 0.785,0.73 0.582,0.443 0.444,0.248 0.188,0.137 0,0"
         style="fill:#00789a;fill-opacity:1;fill-rule:nonzero;stroke:none;stroke-width:9.15354"
         transform="matrix(0.35277776,0,0,-0.35277776,-28.204143,-430.47559)"
         clip-path="url(#clipPath199)" /><path
         id="path268"
         d="m 0,0 c 0.054,-0.607 -0.245,-0.907 -0.82,-1.013 -2.985,-0.548 -5.965,-1.12 -8.953,-1.648 -0.879,-0.155 -1.049,0 -1.317,1.082 -0.697,2.815 -1.37,5.636 -2.047,8.457 -2.572,10.717 -5.142,21.435 -7.712,32.153 -0.292,1.215 -0.592,2.428 -0.869,3.646 -0.249,1.096 -0.161,1.294 0.887,1.494 4.427,0.845 8.857,1.669 13.291,2.472 1.155,0.209 1.24,0.122 1.414,-1.137 0.604,-4.376 1.195,-8.754 1.784,-13.132 C -2.937,21.937 -1.536,11.499 -0.134,1.062 -0.086,0.708 -0.044,0.354 0,0"
         style="fill:#00789a;fill-opacity:1;fill-rule:nonzero;stroke:none;stroke-width:9.15354"
         transform="matrix(0.35277776,0,0,-0.35277776,-49.842085,-433.87443)"
         clip-path="url(#clipPath201)" /><path
         id="path270"
         d="m 0,0 c 0.144,0.809 0.31,1.777 0.489,2.742 2.59,13.955 5.181,27.909 7.772,41.863 0.341,1.836 0.349,1.869 2.129,1.452 4.04,-0.947 8.073,-1.928 12.108,-2.899 0.304,-0.073 0.605,-0.159 0.901,-0.259 0.455,-0.154 0.62,-0.482 0.508,-0.943 C 23.833,41.652 23.746,41.352 23.658,41.052 19.465,26.747 15.271,12.442 11.076,-1.862 11.001,-2.119 10.92,-2.374 10.844,-2.631 10.671,-3.219 10.283,-3.376 9.709,-3.238 6.716,-2.517 3.719,-1.805 0.725,-1.088 0.242,-0.972 -0.092,-0.725 0,0"
         style="fill:#00789a;fill-opacity:1;fill-rule:nonzero;stroke:none;stroke-width:9.15354"
         transform="matrix(0.35277776,0,0,-0.35277776,-37.035961,-433.56095)"
         clip-path="url(#clipPath203)" /><path
         id="path271"
         d="m 0,0 c 0.197,-0.163 0.491,-0.304 0.618,-0.536 0.189,-0.346 0.27,-0.753 0.378,-1.139 4.013,-14.307 8.023,-28.614 12.032,-42.921 0.072,-0.257 0.138,-0.517 0.2,-0.777 0.122,-0.513 -0.058,-0.872 -0.556,-1.06 -0.209,-0.078 -0.418,-0.155 -0.629,-0.226 -2.581,-0.864 -5.162,-1.729 -7.743,-2.59 -1.306,-0.435 -1.349,-0.431 -1.864,0.87 -2.678,6.762 -5.349,13.527 -8.013,20.294 -2.828,7.183 -5.646,14.369 -8.468,21.554 -0.049,0.125 -0.098,0.249 -0.144,0.375 -0.415,1.146 -0.39,1.279 0.745,1.67 3.628,1.25 7.266,2.468 10.903,3.69 C -1.738,-0.526 -0.925,-0.289 0,0"
         style="fill:#00789a;fill-opacity:1;fill-rule:nonzero;stroke:none;stroke-width:9.15354"
         transform="matrix(0.35277776,0,0,-0.35277776,-59.992057,-448.74207)"
         clip-path="url(#clipPath205)" /><path
         id="path272"
         d="m 0,0 c 0.147,0.172 0.313,0.486 0.573,0.64 0.297,0.176 0.675,0.218 1.022,0.303 14.53,3.533 29.06,7.066 43.59,10.596 1.326,0.322 1.437,0.26 1.816,-1.005 0.796,-2.65 1.586,-5.303 2.368,-7.957 0.347,-1.182 0.266,-1.354 -0.913,-1.773 -7.654,-2.721 -15.311,-5.435 -22.968,-8.149 -6.31,-2.236 -12.624,-4.464 -18.933,-6.706 -2.186,-0.777 -2.2,-0.798 -2.861,1.398 -1.107,3.676 -2.19,7.359 -3.278,11.04 C 0.277,-1.143 0.17,-0.663 0,0"
         style="fill:#00789a;fill-opacity:1;fill-rule:nonzero;stroke:none;stroke-width:9.15354"
         transform="matrix(0.35277776,0,0,-0.35277776,-99.573266,-380.49252)"
         clip-path="url(#clipPath207)" /><path
         id="path273"
         d="m 0,0 c -0.242,0.052 -0.547,0.117 -0.852,0.185 -14.549,3.226 -29.098,6.452 -43.646,9.679 -0.218,0.048 -0.438,0.092 -0.651,0.157 -0.833,0.255 -0.936,0.381 -0.735,1.252 0.301,1.304 0.635,2.601 0.994,3.89 0.825,2.966 1.663,5.928 2.518,8.885 0.444,1.535 0.521,1.564 2.065,1.053 10.376,-3.439 20.751,-6.884 31.127,-10.323 3.684,-1.221 7.372,-2.432 11.059,-3.647 C 2.175,11.033 2.476,10.945 2.766,10.829 3.629,10.487 3.72,10.328 3.474,9.42 3.112,8.085 2.715,6.76 2.349,5.427 1.935,3.921 1.55,2.407 1.129,0.904 0.893,0.062 0.737,-0.046 0,0"
         style="fill:#00789a;fill-opacity:1;fill-rule:nonzero;stroke:none;stroke-width:9.15354"
         transform="matrix(0.35277776,0,0,-0.35277776,-83.591832,-402.91194)"
         clip-path="url(#clipPath209)" /><path
         id="path274"
         d="m 0,0 c -0.102,0.742 0.353,0.91 0.959,0.97 2.397,0.238 4.793,0.498 7.191,0.736 12.432,1.235 24.864,2.464 37.297,3.696 2.71,0.269 2.327,0.179 2.656,-2.028 0.362,-2.427 0.745,-4.852 1.117,-7.278 0.206,-1.343 0.173,-1.425 -1.175,-1.703 C 41.925,-6.867 35.803,-8.114 29.681,-9.36 21.153,-11.096 12.625,-12.829 4.096,-14.559 2.274,-14.928 2.232,-14.925 1.95,-13.109 1.306,-8.964 0.704,-4.813 0.086,-0.664 0.053,-0.443 0.029,-0.221 0,0"
         style="fill:#00789a;fill-opacity:1;fill-rule:nonzero;stroke:none;stroke-width:9.15354"
         transform="matrix(0.35277776,0,0,-0.35277776,-100.92571,-388.17631)"
         clip-path="url(#clipPath211)" /><path
         id="path275"
         d="m 0,0 c -5.565,0.435 -10.902,0.852 -16.239,1.27 -9.517,0.747 -19.033,1.496 -28.55,2.243 -0.089,0.007 -0.178,0.015 -0.267,0.024 -1.353,0.135 -1.461,0.227 -1.3,1.562 0.422,3.5 0.874,6.996 1.323,10.493 0.114,0.885 0.252,1.767 0.401,2.647 0.195,1.151 0.321,1.252 1.513,1.04 3.119,-0.555 6.234,-1.134 9.351,-1.703 11.635,-2.124 23.269,-4.248 34.903,-6.372 0.219,-0.04 0.441,-0.074 0.657,-0.127 0.944,-0.23 1.077,-0.35 0.966,-1.264 C 2.397,6.845 1.992,3.882 1.619,0.916 1.528,0.19 1.151,-0.095 0.44,-0.004 0.221,0.024 -0.005,0 0,0"
         style="fill:#00789a;fill-opacity:1;fill-rule:nonzero;stroke:none;stroke-width:9.15354"
         transform="matrix(0.35277776,0,0,-0.35277776,-84.65588,-397.39467)"
         clip-path="url(#clipPath213)" /><path
         id="path276"
         d="m 0,0 c 0.208,4.543 0.422,8.995 0.614,13.448 0.2,4.676 0.368,9.354 0.571,14.029 0.196,4.498 0.422,8.994 0.629,13.491 0.067,1.47 0.116,2.94 0.172,4.41 0.046,1.241 0.234,1.493 1.396,1.39 4.442,-0.392 8.881,-0.816 13.317,-1.264 1.116,-0.113 1.238,-0.306 1.067,-1.519 C 17.2,39.966 16.607,35.951 16.019,31.934 14.45,21.21 12.878,10.486 11.308,-0.238 11.011,-2.266 11.012,-2.256 8.998,-2.06 6.424,-1.81 3.847,-1.589 1.273,-1.336 0.137,-1.225 -0.017,-1.028 0,0"
         style="fill:#00789a;fill-opacity:1;fill-rule:nonzero;stroke:none;stroke-width:9.15354"
         transform="matrix(0.35277776,0,0,-0.35277776,-42.600069,-434.32221)"
         clip-path="url(#clipPath215)" /><path
         id="path277"
         d="m 0,0 c 0,-5.58 0.011,-11.16 -0.006,-16.739 -0.006,-2.008 -0.072,-4.015 -0.124,-6.022 -0.029,-1.139 -0.111,-1.239 -1.205,-1.298 -2.761,-0.149 -5.523,-0.293 -8.286,-0.409 -1.481,-0.062 -1.544,0 -1.679,1.393 -1.097,11.372 -2.185,22.744 -3.278,34.116 -0.325,3.376 -0.655,6.752 -0.983,10.127 -0.017,0.178 -0.042,0.355 -0.057,0.533 -0.132,1.606 -0.101,1.679 1.49,1.76 4.366,0.222 8.732,0.417 13.099,0.609 0.934,0.041 1.1,-0.127 1.162,-1.042 0.024,-0.356 0.01,-0.714 0.01,-1.071 0.001,-6.071 0,-12.142 0,-18.213 0,-1.248 0,-2.496 0,-3.744 C 0.096,0 0.048,0 0,0"
         style="fill:#00789a;fill-opacity:1;fill-rule:nonzero;stroke:none;stroke-width:9.15354"
         transform="matrix(0.35277776,0,0,-0.35277776,-44.229135,-442.42143)"
         clip-path="url(#clipPath217)" /><path
         id="path278"
         d="m 0,0 c -5.433,-0.327 -10.867,-0.653 -16.3,-0.983 -1.915,-0.117 -3.829,-0.247 -5.744,-0.369 -0.267,-0.016 -0.536,-0.042 -0.802,-0.03 -0.849,0.039 -1.01,0.18 -1.061,1.026 -0.063,1.069 -0.122,2.14 -0.127,3.21 -0.017,3.348 -0.008,6.697 -0.008,10.046 0,0.089 -10e-4,0.178 0.002,0.267 0.048,1.171 0.185,1.338 1.329,1.322 1.382,-0.02 2.764,-0.092 4.146,-0.15 3.833,-0.162 7.666,-0.329 11.499,-0.492 3.922,-0.167 7.844,-0.332 11.766,-0.496 2.496,-0.104 4.993,-0.206 7.489,-0.306 3.566,-0.142 7.132,-0.277 10.698,-0.426 0.968,-0.041 1.096,-0.155 1.115,-1.093 0.057,-2.9 0.105,-5.801 0.121,-8.701 C 24.129,1.636 23.99,1.502 22.844,1.428 17.145,1.063 11.444,0.713 5.744,0.358 3.83,0.238 1.915,0.121 0,0.003 0,0.002 0,0.001 0,0"
         style="fill:#00789a;fill-opacity:1;fill-rule:nonzero;stroke:none;stroke-width:9.15354"
         transform="matrix(0.35277776,0,0,-0.35277776,-92.721896,-391.27567)"
         clip-path="url(#clipPath219)" /><path
         id="path283"
         d="m 0,0 c 0.633,0.083 0.866,-0.296 1.011,-0.827 0.316,-1.162 0.58,-2.346 1.007,-3.467 0.569,-1.499 1.264,-2.95 1.92,-4.415 0.479,-1.07 0.461,-1.201 -0.591,-1.774 -5.642,-3.073 -11.287,-6.14 -16.936,-9.199 -1.143,-0.619 -1.363,-0.567 -1.731,0.648 -1.357,4.481 -2.67,8.976 -3.994,13.467 -0.088,0.299 -0.136,0.61 -0.189,0.918 -0.083,0.481 0.144,0.767 0.6,0.886 0.259,0.067 0.52,0.128 0.782,0.18 5.777,1.149 11.554,2.296 17.331,3.442 C -0.528,-0.089 -0.264,-0.047 0,0"
         style="fill:#a7a9ac;fill-opacity:1;fill-rule:nonzero;stroke:none;stroke-width:9.15354"
         transform="matrix(0.35277776,0,0,-0.35277776,-66.920939,-390.02634)"
         clip-path="url(#clipPath221)" /><path
         id="path284"
         d="m 0,0 c -0.06,-0.522 -0.07,-0.912 -0.153,-1.284 -0.721,-3.242 -0.979,-6.517 -0.77,-9.832 0.075,-1.19 0.016,-1.263 -1.223,-1.376 -6.037,-0.552 -12.075,-1.093 -18.114,-1.625 -1.171,-0.103 -1.371,0.027 -1.418,1.175 -0.156,3.829 -0.286,7.659 -0.37,11.489 -0.028,1.268 0.217,1.432 1.503,1.463 0.222,0.005 0.445,10e-4 0.668,0.002 6.019,0.04 12.037,0.084 18.055,0.115 C -1.26,0.13 -0.698,0.051 0,0"
         style="fill:#a7a9ac;fill-opacity:1;fill-rule:nonzero;stroke:none;stroke-width:9.15354"
         transform="matrix(0.35277776,0,0,-0.35277776,-66.576557,-395.96698)"
         clip-path="url(#clipPath223)" /><path
         id="path285"
         d="m 0,0 c -6.307,4.633 -12.047,9.907 -17.383,15.691 0.21,-0.102 0.439,-0.177 0.628,-0.309 5.231,-3.639 10.61,-7.04 16.23,-10.048 C 0.069,5.016 0.328,4.67 0.308,4 0.268,2.713 0.296,1.425 0.296,0.137 0.197,0.091 0.099,0.046 0,0"
         style="fill:#a7a9ac;fill-opacity:1;fill-rule:nonzero;stroke:none;stroke-width:9.15354"
         transform="matrix(0.35277776,0,0,-0.35277776,-15.612252,-345.07691)"
         clip-path="url(#clipPath225)" /><path
         id="path286"
         d="m 0,0 c 2.719,0.103 5.439,0.194 8.159,0.299 4.279,0.165 8.558,0.34 12.837,0.504 2.764,0.105 5.528,0.192 8.292,0.297 4.369,0.165 8.737,0.343 13.105,0.507 3.79,0.143 7.58,0.266 11.369,0.415 5.304,0.21 10.607,0.448 15.912,0.652 4.012,0.154 8.026,0.256 12.038,0.412 5.26,0.204 10.518,0.451 15.777,0.655 3.968,0.154 7.937,0.267 11.905,0.405 1.14,0.039 1.323,0.199 1.329,1.343 0.018,3.571 0.017,7.143 0.001,10.714 -0.005,1.158 -0.21,1.332 -1.337,1.28 C 105.644,17.311 101.901,17.136 98.159,16.95 92.055,16.647 85.952,16.323 79.848,16.031 74.723,15.786 69.597,15.589 64.472,15.343 58.368,15.051 52.265,14.724 46.161,14.423 40.592,14.149 35.022,13.89 29.452,13.624 21.921,13.266 14.39,12.907 6.859,12.549 0.443,12.244 -5.974,11.94 -12.391,11.634 c -1.329,-0.063 -1.554,0.078 -2.063,1.388 -1.674,4.308 -4.089,8.149 -7.479,11.297 -9.601,8.918 -20.735,11.393 -33.103,7.189 -13.14,-4.466 -21.315,-17.239 -21.076,-30.256 0.158,-8.577 3.114,-16.006 9.131,-22.075 6.811,-6.871 15.157,-10.019 24.85,-9.459 5.562,0.322 10.668,2.048 15.33,5.086 4.742,3.09 8.399,7.162 10.979,12.202 0.683,1.335 0.799,1.382 2.315,1.064 0.131,-0.027 0.262,-0.057 0.392,-0.087 16.196,-3.675 32.392,-7.348 48.587,-11.024 20.506,-4.655 41.008,-9.323 61.521,-13.945 1.509,-0.34 3.09,-0.481 4.64,-0.496 4.379,-0.043 7.346,2.203 8.648,6.393 0.603,1.94 0.541,2.044 -1.453,2.494 -8.056,1.818 -16.113,3.633 -24.168,5.457 -26.386,5.976 -52.771,11.954 -79.156,17.932 -5.356,1.213 -10.71,2.43 -16.063,3.655 -0.493,0.113 -1.082,0.093 -1.406,0.861 0.376,0.099 0.685,0.242 1,0.256 C -7.311,-0.278 -3.655,-0.139 0,0"
         style="fill:#a7a9ac;fill-opacity:1;fill-rule:nonzero;stroke:none;stroke-width:9.15354"
         transform="matrix(0.35277776,0,0,-0.35277776,-38.254235,-392.15871)"
         clip-path="url(#clipPath227)" /></g><text
       xml:space="preserve"
       style="font-style:normal;font-variant:normal;font-weight:normal;font-stretch:normal;font-size:11px;line-height:1.2;font-family:'Leelawadee UI';-inkscape-font-specification:'Leelawadee UI';text-decoration-color:#000000;letter-spacing:0px;word-spacing:0px;fill:#ffffff;stroke-width:1.5748;stroke-linejoin:round;paint-order:markers stroke fill"
       x="-247.30614"
       y="852.42102"
       id="text287"><tspan
         id="tspan287"
         style="font-style:normal;font-variant:normal;font-weight:normal;font-stretch:normal;font-family:'Leelawadee UI';-inkscape-font-specification:'Leelawadee UI';stroke-width:1.5748"
         x="-247.30614"
         y="852.42102">ELHS SOC</tspan></text></g><style
     type="text/css"
     id="style26" /></svg>
